<svg xmlns="http://www.w3.org/2000/svg" width="7750" height="3777"><path fill="#FFF" d="m2614.813 343.75 2.087-.002c38.26.06 75.822 13.962 103.936 40.244 1.855 1.722 3.751 3.305 5.727 4.883 4.814 4.104 8.56 9.158 12.437 14.125l2.258 2.816c16.68 21.36 27.037 47.384 30.742 74.184l.336 2.367c4.715 40.904-6.54 83.077-31.86 115.58-8.978 11.073-19.295 21.007-29.379 31.056a22197.29 22197.29 0 0 1-17.846 17.818c-4.224 4.214-8.445 8.431-12.666 12.648a94095.159 94095.159 0 0 1-24.313 24.276 112926.221 112926.221 0 0 0-38.596 38.547l-14.873 14.86-1.669 1.666a428724.56 428724.56 0 0 1-81.085 80.985l-1.741 1.739-13.9 13.875a142559.015 142559.015 0 0 0-65.45 65.38 40755.771 40755.771 0 0 1-27.23 27.185c-8.59 8.57-17.176 17.144-25.756 25.725-4.643 4.643-9.29 9.284-13.942 13.919a6179.167 6179.167 0 0 0-12.776 12.765c-1.533 1.534-3.07 3.065-4.608 4.594-31.474 31.277-53.277 69.93-53.888 115.272-.122 44.022 15.576 83.945 46.492 115.43 23.803 23.583 56.4 39.451 89.75 43.313l2.566.332c38.237 4.274 79.141-6.487 109.772-29.979 10.11-8.23 19.136-17.705 28.32-26.93l5.005-5.013c3.577-3.584 7.152-7.169 10.727-10.755a24025.1 24025.1 0 0 1 15.544-15.578c8.427-8.439 16.852-16.879 25.275-25.32l1.524-1.528c7.136-7.151 14.27-14.305 21.405-21.458l1.522-1.527 1.521-1.526c8.392-8.414 16.787-16.825 25.186-25.233a16846.82 16846.82 0 0 0 16.86-16.904 9684.99 9684.99 0 0 1 10.517-10.533c1.618-1.62 3.234-3.242 4.848-4.865 8.15-8.195 16.24-16.12 25.408-23.183l3.066-2.496c33.23-25.845 76.15-35.06 117.473-29.973 37.596 5.22 74.44 24.785 98.461 54.469l2.227 2.648c15.958 19.708 27.056 43.41 31.773 68.352l.53 2.746c1.617 9.251 1.87 18.33 1.845 27.691l-.003 2.399c-.11 30.39-8.462 57.433-24.184 83.351l-1.072 1.797c-7.387 11.77-17.546 21.739-27.361 31.472-1.183 1.18-2.365 2.362-3.547 3.543a4734.966 4734.966 0 0 1-7.566 7.54 8221 8221 0 0 0-11.98 11.943c-6.313 6.302-12.63 12.599-18.95 18.893a49532.33 49532.33 0 0 0-33.948 33.848c-3.962 3.954-7.926 7.904-11.894 11.853-2.47 2.46-4.937 4.92-7.405 7.382a2975.348 2975.348 0 0 1-3.416 3.4c-5.41 5.377-10.758 10.756-15.705 16.569-1.81 2.118-3.74 4.115-5.657 6.136-19.98 22.223-31.98 52.002-35.687 81.437l-.336 2.574c-4.418 39.946 7.485 81.526 32.484 112.969 3.792 4.64 7.714 9.123 11.852 13.457l1.805 1.996c18.08 19.283 43.968 31.526 69.195 38.004l.743-1.93c18.32-47.305 43.745-90.15 76.257-129.07l1.35-1.628c7.012-8.434 14.386-16.338 22.238-23.993 3.236-3.16 6.414-6.379 9.576-9.613 6.108-6.222 12.236-12.167 19.09-17.579 2.445-1.947 4.814-3.962 7.173-6.013 39.392-34.103 87.626-60.002 136.573-77.174l2.854-1.025c28.605-10.255 58.111-16.675 88.146-20.975l3.755-.543c37.837-5.168 78.46-4.925 116.245.543l2.055.294c84.653 12.211 163.997 47.04 246.423 117.301a446.933 446.933 0 0 0 4.67 4.237c7.88 7.102 15.169 14.636 22.31 22.477a614.29 614.29 0 0 0 4.038 4.375c5.698 6.185 10.88 12.72 16.006 19.377a1028.14 1028.14 0 0 0 4.666 5.982c31.94 40.945 55.96 87.584 71.832 136.957l.999 3.08c7.485 23.355 12.772 47.222 16.314 71.483l.446 3.05c.374 2.76.7 5.523 1.007 8.291.156 1.395.317 2.79.484 4.183 2.523 21.676 2.023 43.496 1.982 65.28-.009 5.872-.006 11.745-.004 17.618.001 10.149-.005 20.298-.017 30.447a35082.442 35082.442 0 0 0-.024 44.02c-.004 23.812-.017 47.624-.036 71.437-.019 23.117-.033 46.234-.041 69.351v2.164a1039180.432 1039180.432 0 0 0-.025 65.327l-.001 2.034c-.019 44.745-.051 89.49-.084 134.235h-152l-.028-43.203c-.022-30.542-.05-61.084-.089-91.625l-.002-2.02a352789.332 352789.332 0 0 0-.089-64.818l-.002-2.144c-.032-22.87-.05-45.74-.062-68.61a56714.28 56714.28 0 0 0-.08-70.595c-.026-15.144-.041-30.289-.04-45.433 0-9.95-.014-19.9-.04-29.85-.015-5.726-.023-11.45-.014-17.176.043-29.36-.619-58.169-7.742-86.839l-.895-3.697c-15.46-61.73-51.959-122.022-102.917-160.99l-3.031-2.406c-17.25-13.633-36.1-25.2-55.952-34.635a443.584 443.584 0 0 1-3.983-1.918c-28.636-13.905-60.486-22.36-92.034-26.041l-2.244-.283c-78.152-8.606-157.467 15.55-218.756 64.283-14.296 11.506-28.176 23.941-40 38l-1.383 1.645c-34.212 40.874-57.526 88.76-67.43 141.23l-.59 3.126c-.591 3.327-1.1 6.657-1.597 9.999l-.585 3.848c-1.787 13.132-1.176 25.91-.358 39.102.431 7.005.806 14.013 1.18 21.021l.122 2.248a1606.691 1606.691 0 0 1 1.487 35.467l.078 2.455c.263 8.377.507 16.754.735 25.131a7040.647 7040.647 0 0 0 .441 15.465 986.652 986.652 0 0 0 1.746 35.781c1.37 20.663 2.252 41.29 2.263 62.002l.005 2.444c-.001 49.8-11.183 83.087-46.693 118.701-19.592 19.312-40.772 36.94-62.863 53.311-6.402 5.065-12.293 10.613-18.048 16.394l-2.16 2.157c-2.378 2.376-4.752 4.756-7.127 7.137l-5.176 5.175c-3.747 3.747-7.492 7.495-11.236 11.244a37578.746 37578.746 0 0 1-16.708 16.72c-9.374 9.377-18.746 18.755-28.116 28.135a167001.32 167001.32 0 0 1-38.401 38.424 745750.888 745750.888 0 0 0-62.339 62.37l-1.883 1.885a3770307.949 3770307.949 0 0 0-58.611 58.65l-1.882 1.884-42.556 42.58-1.807 1.807-17.861 17.868a166288.81 166288.81 0 0 0-38.356 38.38c-9.318 9.327-18.637 18.652-27.958 27.975a37880.04 37880.04 0 0 0-16.605 16.62c-4.132 4.137-8.267 8.273-12.403 12.407a6639.173 6639.173 0 0 0-5.014 5.02c-2.271 2.277-4.546 4.55-6.82 6.822l-1.962 1.97c-3.751 3.74-7.626 7.267-11.632 10.73-2.79 2.456-5.417 5.056-8.036 7.691l-1.716 1.715c-1.882 1.88-3.76 3.765-5.637 5.65l-4.106 4.106c-3.748 3.75-7.493 7.503-11.238 11.257-4.043 4.052-8.09 8.102-12.137 12.151a74858.558 74858.558 0 0 0-21.022 21.05 90579.419 90579.419 0 0 1-30.43 30.464 582036.018 582036.018 0 0 0-49.42 49.465l-1.493 1.495a319471.425 319471.425 0 0 0-43.442 43.498l-1.493 1.494-2.981 2.986a165397.948 165397.948 0 0 1-50.717 50.767 58262.525 58262.525 0 0 0-30.344 30.383c-6.93 6.944-13.864 13.884-20.801 20.821-4 4.001-7.998 8.003-11.992 12.01-3.66 3.672-7.325 7.34-10.994 11.003a2067.75 2067.75 0 0 0-3.96 3.97c-31.357 31.516-69.836 52.68-115.226 53.024l-3.9-.017-2.046-.007c-11.168-.057-21.885-.724-32.766-3.306l-2.502-.586c-24.363-5.905-46.678-16.76-65.498-33.414l-1.483-1.3c-29.894-26.312-50.573-63.494-53.517-103.7-1.876-47.487 10.484-88.724 43-124 3.004-3.118 6.066-6.174 9.14-9.222l2.62-2.611c2.342-2.333 4.686-4.663 7.03-6.992 2.472-2.459 4.941-4.922 7.41-7.384 8.382-8.358 16.77-16.71 25.163-25.058 4.652-4.627 9.3-9.257 13.943-13.892 2.447-2.441 4.896-4.881 7.35-7.316 2.739-2.72 5.472-5.446 8.203-8.173l2.41-2.383c30.767-30.82 48.17-70.38 48.981-113.969-.822-41.72-16.525-78.19-44.25-109l-1.828-2.05c-25.768-27.266-66.023-43.724-103.172-44.95l-2.941-.121c-46.981-1-86.327 19.136-119.683 50.835-8.31 7.995-16.414 16.204-24.556 24.369-2.99 2.998-5.984 5.992-8.978 8.987a37901.023 37901.023 0 0 0-15.693 15.715 70409.663 70409.663 0 0 1-23.337 23.37 229337.251 229337.251 0 0 0-36.875 36.921 230816.591 230816.591 0 0 1-58.536 58.597l-12.475 12.485a383901634.666 383901634.666 0 0 0-12.606 12.616c-19.857 19.871-39.712 39.744-59.567 59.617l-2.63 2.633c-28.173 28.2-56.34 56.403-84.506 84.61a245265.94 245265.94 0 0 1-99.251 99.341l-2.443 2.444a71711.274 71711.274 0 0 0-38.86 38.915 49503.579 49503.579 0 0 1-39.063 39.1 18616.581 18616.581 0 0 0-23.186 23.222 8618.398 8618.398 0 0 1-15.51 15.52c-2.946 2.94-5.889 5.884-8.822 8.836-34.164 34.372-72.531 56.247-122.232 56.425-24.89-.236-47.86-5.514-70.25-16.437l-1.949-.945c-9.088-4.47-17.179-9.633-25.051-16.055-.56-.454-1.121-.908-1.7-1.375-30.952-25.205-51.972-60.776-57.3-100.625l-.277-1.988c-5.126-40.291 5.308-82.438 29.832-114.93a170.585 170.585 0 0 1 9.144-10.605 211.582 211.582 0 0 0 5.459-6.143c3.701-4.236 7.613-8.206 11.622-12.148l2.255-2.232c1.604-1.586 3.209-3.172 4.814-4.756 3.434-3.391 6.858-6.792 10.282-10.192a8233.77 8233.77 0 0 1 19.098-18.913 4029.37 4029.37 0 0 0 13.33-13.216 1264.46 1264.46 0 0 1 5.047-4.985c12.98-12.753 23.77-25.816 32.144-42.08l1.37-2.65c18.623-37.176 20.665-80.514 7.713-119.768-13.472-38.74-41.832-70.83-78.41-89.233-37.729-18.081-81.454-20.582-120.984-7.01-8.166 2.962-15.838 6.663-23.439 10.849-1.054.565-2.109 1.13-3.195 1.71-21.073 11.72-37.579 29.914-54.429 46.816-2.65 2.658-5.304 5.312-7.957 7.967-4.638 4.643-9.275 9.288-13.911 13.934-6.894 6.909-13.79 13.815-20.688 20.72-10.899 10.91-21.795 21.823-32.69 32.737-17.298 17.325-34.6 34.646-51.905 51.965l-11.062 11.071a866150496.3 866150496.3 0 0 0-11.179 11.19c-17.61 17.624-35.218 35.25-52.827 52.877l-2.333 2.336c-24.978 25.004-49.95 50.013-74.921 75.025a192724.761 192724.761 0 0 1-88.009 88.098l-2.166 2.168a56314.734 56314.734 0 0 0-34.447 34.502 38909.211 38909.211 0 0 1-34.64 34.678c-6.858 6.857-13.71 13.719-20.553 20.589a6778.99 6778.99 0 0 1-13.76 13.768c-2.612 2.606-5.22 5.216-7.82 7.834-22.397 22.553-46.516 41.06-77.57 49.827l-1.959.554c-13.952 3.66-27.535 5.161-41.916 5.009l-2.387-.014c-11.446-.08-22.557-.409-33.676-3.361l-2.4-.618c-28.597-7.536-53.615-21.511-74.6-42.382l-1.457-1.444c-29.296-29.469-43.839-70.563-43.79-111.675.287-23.763 5.809-46.56 16.247-67.881l.897-1.88c3.654-7.592 7.886-14.545 12.915-21.307l1.36-1.833c9.37-12.205 20.635-22.925 31.51-33.762l4.71-4.705c4.285-4.283 8.575-8.563 12.864-12.842 4.16-4.15 8.317-8.302 12.474-12.454 7.98-7.97 15.96-15.939 23.942-23.906 12.671-12.648 25.338-25.3 38.004-37.954l14.644-14.631 1.643-1.642a415494.016 415494.016 0 0 1 79.838-79.737l1.715-1.712 13.688-13.664a138263.114 138263.114 0 0 0 64.446-64.376l1.586-1.584c8.405-8.4 16.816-16.794 25.229-25.186 8.459-8.437 16.912-16.88 25.36-25.328 4.572-4.573 9.147-9.143 13.728-13.706 4.2-4.183 8.391-8.372 12.578-12.567 1.51-1.511 3.024-3.02 4.54-4.526 31.852-31.65 51.241-71.03 51.642-116.385-.107-42.377-17.144-80.91-46.313-111.313-20.745-20.552-46.773-34.017-75-41l-1.965-.5c-20.661-5.017-46.47-4.835-67.035.5l-2.413.618c-26.623 7.02-49.704 19.244-69.798 38.063-32.727 30.253-74.42 45.22-118.87 43.483-43.514-2.445-81.918-22.587-110.982-54.551-21.673-24.555-36.946-59.849-37.14-92.793l-.017-2.336c-.01-1.629-.016-3.258-.02-4.886-.01-2.432-.04-4.862-.073-7.293C-.385 2056.55.73 2046.505 3 2036l.586-2.726a133.985 133.985 0 0 1 1.602-6.211l.627-2.225c10.691-36.052 35.192-61.004 61.102-86.89 2.894-2.892 5.785-5.787 8.676-8.682a35788.27 35788.27 0 0 1 15.244-15.25c7.61-7.61 15.216-15.22 22.822-22.832 12.965-12.974 25.931-25.945 38.9-38.916 13.14-13.142 26.28-26.286 39.418-39.43l2.515-2.518 10.142-10.147c40.485-40.506 80.975-81.007 121.466-121.507 13.76-13.762 27.518-27.525 41.277-41.288l1.42-1.42 12.796-12.8c48.197-48.21 96.394-96.419 194.569-194.609l13.749-13.75a70996369.427 70996369.427 0 0 1 41.455-41.46A1190703.388 1190703.388 0 0 0 827.6 1177.042l47.517-47.54 1.526-1.526c31.537-31.552 63.077-63.101 94.618-94.648l1.477-1.476a1736617.107 1736617.107 0 0 1 94.303-94.312c21.826-21.827 43.65-43.656 65.47-65.49l1.426-1.426 24.107-24.124a262911.043 262911.043 0 0 1 104.323-104.338l2.509-2.508a76524.755 76524.755 0 0 0 39.304-39.327 47864.906 47864.906 0 0 1 38.656-38.659c7.559-7.55 15.111-15.106 22.656-22.67a8131.089 8131.089 0 0 1 15.064-15.058c2.847-2.84 5.692-5.683 8.528-8.535 13.79-13.864 27.563-27.581 45.042-36.781l2.278-1.226c37.956-20.126 82.082-24.536 123.222-11.962 21.733 7.118 41.525 17.986 58.27 33.61a85.255 85.255 0 0 0 5.293 4.515c3.678 3.188 6.727 6.68 9.812 10.438l2.316 2.809c26.148 32.437 38.022 74.127 34.221 115.517-2.66 24.243-10.826 45.297-22.395 66.546-1.086 2.023-2.115 4.075-3.142 6.128l33-33c0 3 0 3-1.775 5.133l-2.541 2.517-1.408 1.407c-1.566 1.561-3.142 3.112-4.718 4.662-1.123 1.115-2.244 2.231-3.365 3.347a3075.383 3075.383 0 0 1-7.278 7.214c-3.856 3.81-7.7 7.633-11.542 11.458-9.557 9.51-19.13 19.006-28.707 28.496-7.42 7.353-14.834 14.71-22.235 22.08-3.185 3.172-6.375 6.34-9.574 9.498-17.493 17.27-33.586 34.096-44.857 56.188l-.96 1.833c-18.482 35.576-20.477 78.125-9.04 116.167 8.277 25.143 22.062 46.547 41 65l1.48 1.652c22.883 24.7 61.228 40.146 94.652 41.472 47.915 1.066 87.813-12.903 122.868-46.124 4.288-4.138 8.49-8.363 12.698-12.583l3.718-3.717c3.387-3.387 6.772-6.777 10.156-10.168 3.688-3.695 7.38-7.387 11.072-11.08 6.463-6.466 12.925-12.934 19.386-19.403 9.607-9.62 19.217-19.237 28.828-28.853 15.18-15.19 30.359-30.381 45.536-45.573 23.582-23.605 47.168-47.206 70.756-70.805l27.795-27.808 4.682-4.684A1473294.254 1473294.254 0 0 0 2177.14 715.71l17.917-17.934 1.626-1.627 8.122-8.13c24.47-24.492 48.94-48.983 73.416-73.469l1.56-1.56a687429.526 687429.526 0 0 1 47.534-47.551l1.507-1.509c16.013-16.018 32.02-32.04 48.025-48.066 16.57-16.592 33.144-33.178 49.726-49.759 9.555-9.555 19.107-19.115 28.652-28.68 6.379-6.392 12.763-12.778 19.151-19.16 3.638-3.634 7.274-7.27 10.903-10.914 3.308-3.32 6.622-6.634 9.942-9.943 1.187-1.184 2.371-2.372 3.552-3.562 31.395-31.617 71.16-50.057 116.039-50.096ZM1082 1365l-3.688.52c-76.685 11.081-149.87 41.13-211.312 88.48l-1.63 1.248c-21.225 16.275-42.259 34.356-59.643 54.748-1.944 2.256-3.96 4.438-5.977 6.629-5.107 5.662-9.77 11.63-14.42 17.665a316.353 316.353 0 0 1-3.62 4.546c-52.166 65.432-82.948 147.828-91.523 230.664l-.338 3.24c-2.463 26.517-1.991 53.262-1.965 79.86.004 5.565.003 11.129.002 16.693 0 9.608.003 19.217.008 28.826.008 13.892.011 27.784.012 41.676.002 22.546.01 45.093.019 67.639.009 21.884.016 43.768.02 65.652v2.05l.004 20.375c.01 56.83.03 113.66.051 170.489h150l.06-41.782a374737.087 374737.087 0 0 1 .257-153.213l.004-2.073c.04-22.115.073-44.23.104-66.345.032-23.4.071-46.798.118-70.197.028-13.998.05-27.995.064-41.992.01-9.62.029-19.239.052-28.858.013-5.537.024-11.073.025-16.61.021-56.87.021-56.87 4.504-82.055l.647-3.732c4.995-27.612 14.002-53.898 26.165-79.143l1.115-2.329c9.298-19.17 21.382-37.203 34.885-53.671l1.29-1.577c8.543-10.4 17.338-21.08 27.698-29.716a104.25 104.25 0 0 0 4.242-3.82c14.353-13.596 30.812-24.81 47.77-34.887l2.224-1.323c30.473-17.926 63.626-29.552 98.338-35.99l2.407-.446c16.563-2.865 32.936-3.648 49.718-3.616l3.255.002c18.001.041 35.34 1.029 53.058 4.373l3.321.617c25.066 4.836 49.814 13.036 72.679 24.383l2.734 1.334c23.75 11.66 46.541 26.297 65.895 44.443a170.257 170.257 0 0 0 6.309 5.598c8.276 7.204 16.085 15.16 23.062 23.625l1.263 1.524c12.853 15.574 23.97 31.804 33.737 49.476l1.289 2.287c14.36 25.55 23.881 53.488 30.024 82.088l.698 3.175c5.527 27.311 5.44 54.793 5.422 82.52 0 5.76.016 11.519.03 17.278.023 9.947.035 19.893.04 29.84.006 14.38.029 28.76.056 43.14.043 23.34.073 46.678.095 70.017.02 22.654.048 45.307.084 67.96l.003 2.121.033 21.093a455376.112 455376.112 0 0 1 .073 46.94c.065 43.18.108 86.36.153 129.541h150c.05-66.763.05-66.763.085-133.525v-2a680640.241 680640.241 0 0 0 .026-66.292c.008-22.649.023-45.298.042-67.946.02-23.963.031-47.925.035-71.888.003-14.335.012-28.67.028-43.005.01-9.85.014-19.701.011-29.552-.001-5.67 0-11.34.011-17.01.05-27.517-.008-54.922-3.988-82.22l-.51-3.575c-12.808-86.23-50.222-170.214-109.545-234.58a156.213 156.213 0 0 1-3.571-4.024c-5.169-6.054-10.758-11.67-16.394-17.283-1.664-1.66-3.323-3.324-4.982-4.989-5.576-5.58-11.215-11.021-17.248-16.111-1.022-.888-2.043-1.778-3.063-2.668-8.363-7.174-17.03-13.848-25.937-20.332l-2.063-1.504c-71.606-51.974-161.083-85.322-250.148-85.7l-3.39-.02c-3.591-.018-7.183-.024-10.774-.026l-3.727-.002c-18.823.016-37.244.542-55.898 3.252Zm1082 0-3.802.52c-28.076 3.909-55.299 10.587-82.198 19.48l-3.026.99c-56.042 18.546-107.925 49.899-151.974 89.01l-2.945 2.605c-6.966 6.26-13.627 12.842-20.272 19.437-1.005.996-2.01 1.991-3.018 2.984-5.92 5.846-11.462 11.857-16.654 18.366-2.003 2.475-4.082 4.843-6.22 7.202-3.989 4.442-7.59 9.11-11.141 13.906l-1.958 2.635c-1.938 2.616-3.867 5.24-5.792 7.865l-1.66 2.254c-8.181 11.158-15.43 22.763-22.34 34.746l-1.32 2.285A578.043 578.043 0 0 0 1821 1605l-1.291 2.408c-35.798 67.406-51.638 144.348-30.827 336.957 5.862 19.06 12.734 37.544 21.118 55.635l1.398 3.045c14.455 31.348 32.176 60.856 53.602 87.955l1.588 2.016c6.314 7.982 12.815 15.718 19.78 23.14a234.534 234.534 0 0 1 5.831 6.559c4.359 5.002 9.038 9.668 13.738 14.347l2.592 2.604c4.996 4.988 10.106 9.748 15.471 14.334 1.048.925 2.095 1.852 3.14 2.781 61.75 54.263 139.857 90.111 220.735 103.594l2.214.369a488.622 488.622 0 0 0 24.044 3.358l2.02.233c13.916 1.511 27.74 1.808 41.722 1.785l5.929.003c5.393.002 10.786-.002 16.18-.007 5.83-.004 11.66-.003 17.49-.002 10.088 0 20.177-.003 30.265-.008 14.586-.008 29.173-.011 43.759-.012 23.667-.002 47.335-.01 71.003-.019 22.984-.009 45.97-.016 68.954-.02h2.149a2053248.478 2053248.478 0 0 1 66.911-.013c44.495-.01 88.99-.025 133.485-.042.051-45.529.1-91.058.127-136.587l.001-2.046a474839.287 474839.287 0 0 0 .037-65.652l.001-2.171c.013-23.168.035-46.337.063-69.505a76352.275 76352.275 0 0 0 .056-83.655c.004-11.293.02-22.586.039-33.879.016-10.078.02-20.156.017-30.234-.002-5.8 0-11.6.017-17.4.063-23.817-.174-47.23-3.358-70.871l-.332-2.534a304.376 304.376 0 0 0-1.918-12.528l-.634-3.69c-7.232-40.692-20.2-80.042-38.116-117.248l-1.315-2.774c-15.427-32.48-35.528-62.741-58.685-90.226l-1.31-1.567c-13.146-15.708-27.074-31.396-42.686-44.706-2.256-1.944-4.438-3.96-6.629-5.977-5.662-5.107-11.63-9.77-17.665-14.42a316.353 316.353 0 0 1-4.546-3.62c-17.395-13.868-36.627-26.11-56.164-36.71l-2.652-1.442c-49.406-26.694-101.739-43.612-157.348-51.558l-3.463-.505c-36.99-5.137-76.59-4.783-113.537.505ZM5039 1361h152l.044 42.9c.033 30.318.07 60.636.115 90.954l.003 2.005a464833.515 464833.515 0 0 0 .1 64.318l.004 2.127c.035 22.705.061 45.409.082 68.113.023 24.02.056 48.04.1 72.06.027 14.37.045 28.74.051 43.11.006 9.874.022 19.747.047 29.62.014 5.685.023 11.369.019 17.053-.05 91.762 27.247 171.496 92.185 237.615 3.616 3.538 7.38 6.867 11.25 10.125l1.612 1.367c15.062 12.715 31.194 23.984 48.388 33.633l2.285 1.288c14.084 7.852 28.61 14.099 43.715 19.712.81.303 1.62.606 2.456.917 21.427 7.886 43.941 12.243 66.544 15.083l2.495.317c24.93 2.712 51.83 1.962 76.505-2.317l3.474-.602c48.65-8.733 95.035-28.042 133.775-59.001a396.453 396.453 0 0 1 4.603-3.604c16.535-12.887 32.404-28.137 45.148-44.793l2.336-2.926c31.282-39.62 51.796-86.199 60.476-135.887l.592-3.294c4.444-27.408 3.905-55.393 3.913-83.064.003-5.612.019-11.223.032-16.835.022-9.688.038-19.377.048-29.065.014-14.007.04-28.014.068-42.021.045-22.734.082-45.468.113-68.202.03-22.064.065-44.129.105-66.193l.003-2.067.038-20.548c.104-57.3.193-114.599.276-171.898h152l.044 43.406c.033 30.668.07 61.337.115 92.005l.003 2.028a474514.353 474514.353 0 0 0 .1 65.039l.004 2.151c.035 22.968.061 45.935.082 68.903.022 23.622.053 47.245.097 70.867.028 15.21.048 30.418.054 45.628.006 9.984.022 19.968.047 29.952.014 5.75.023 11.501.019 17.252-.157 32.011-.157 32.011 3.435 63.769.225 1.386.447 2.773.668 4.16 4.271 26.094 12.693 52.104 24.332 75.84.605 1.285 1.21 2.57 1.813 3.855 11.52 24.178 26.509 46.084 44.187 66.145l2.117 2.453c10.327 11.769 21.45 23.013 33.883 32.547l3.855 3.043c52.96 41.53 118.359 64.558 185.708 64.27l2.771-.007c67.34-.253 132.018-23.38 184.666-65.306l2.977-2.328c61.476-48.964 100.16-122.79 109.033-200.506 1.835-18.358 1.435-36.86 1.423-55.289 0-5.784.016-11.57.03-17.354.023-9.992.035-19.984.04-29.975.006-14.446.029-28.892.056-43.338.043-23.445.073-46.89.095-70.334.02-22.757.048-45.515.084-68.272l.003-2.13c.01-7.063.022-14.125.033-21.187l.067-43.147.003-2.003c.066-44.046.11-88.091.156-132.137h152c.1 90.259.1 90.259.127 134.987a128777243.706 128777243.706 0 0 1 .026 45.578 672353.006 672353.006 0 0 0 .013 23.511c.013 22.898.035 45.795.063 68.693.028 23.564.047 47.127.053 70.691.004 15.162.016 30.325.042 45.487.016 9.966.02 19.931.017 29.897-.002 5.732 0 11.463.017 17.195.084 31.238-.569 62.237-6.046 93.086l-.38 2.206C6679.537 1975.296 6641.499 2051.87 6586 2115l-2.395 2.738c-5.98 6.676-12.268 13.052-18.58 19.412-1 1.008-1.997 2.017-2.994 3.027-5.918 5.995-11.997 11.626-18.602 16.867-2.347 1.89-4.582 3.86-6.804 5.894-5.612 5.028-11.587 9.563-17.625 14.062l-2.037 1.521c-62.346 46.35-135.21 74.962-211.963 85.479l-2.03.279c-34.545 4.65-71.378 5.088-105.97.721l-3.245-.39c-46.817-5.751-91.692-18.46-134.755-37.61l-2.611-1.155c-13.615-6.076-26.531-13.316-39.389-20.845l-2.45-1.43c-17.417-10.227-33.87-21.849-49.55-34.57l-2.95-2.363a332.34 332.34 0 0 1-15.468-13.301 190.31 190.31 0 0 0-4.238-3.747c-5.885-5.03-11.358-10.45-16.817-15.932a1826.913 1826.913 0 0 0-4.771-4.764c-5.462-5.459-10.766-10.995-15.756-16.893l-2.563-2.922c-11.74-13.622-22.396-28.166-32.437-43.078-3.1 3.78-5.992 7.689-8.872 11.636-5.828 7.989-11.737 15.815-18.128 23.364a3975.14 3975.14 0 0 0-2.605 3.129c-9.6 11.478-19.722 22.385-30.302 32.963-1.598 1.6-3.187 3.208-4.777 4.816-5.714 5.745-11.553 11.106-17.9 16.164a150.566 150.566 0 0 0-5.92 4.975c-9.032 7.997-18.584 15.084-28.496 21.953l-2.465 1.711c-13.759 9.493-27.957 18.116-42.535 26.289l-2.506 1.406c-52.63 29.231-113.534 46.749-173.494 51.594l-2.993.259c-31.378 2.432-63.816 2.022-95.007-2.259l-2.147-.294c-83.336-11.589-163.377-45.135-227.853-99.706-1.03-.857-2.062-1.714-3.094-2.57-11.816-9.844-22.889-20.327-33.781-31.18l-2.703-2.689c-5.015-5.027-9.819-10.156-14.422-15.561l-2.563-2.922c-22.382-25.97-41.323-54.86-57.437-85.078l-1.295-2.417c-33.167-62.45-49.942-133.909-49.825-204.458l-.003-5.929c-.002-5.393.002-10.786.007-16.18.004-5.83.003-11.66.002-17.49 0-10.088.003-20.177.008-30.265.008-14.586.011-29.173.012-43.759.002-23.667.01-47.335.019-71.003.009-22.984.016-45.97.02-68.954v-2.149a2053248.478 2053248.478 0 0 0 .013-66.911c.01-44.495.026-88.99.042-133.485ZM7297 1360.688l3.794.005c18.914.046 37.467.56 56.206 3.307l3.679.52c91.351 13.197 175.229 53.3 243.321 115.48l2.863 2.582c9.248 8.364 18.359 16.94 26.446 26.45 1.93 2.246 3.935 4.414 5.941 6.593 5.107 5.662 9.77 11.63 14.42 17.665a316.353 316.353 0 0 0 3.62 4.546c18.89 23.694 34.07 50.198 47.71 77.164l1.329 2.608c27.39 54.15 43.659 118.238 43.874 179.072l.017 3.903c.01 2.721.017 5.442.02 8.164.005 2.72.018 5.44.041 8.16.857 103.691-36.963 205.422-119.578 304.48a440.234 440.234 0 0 1-3.785 3.692c-1.814 1.816-3.472 3.692-5.129 5.651-3.783 4.355-7.873 8.29-12.101 12.207l-2.277 2.122A2840 2840 0 0 1 7601 2151l-2.836 2.648c-6.193 5.7-12.762 10.87-19.423 16.005a670.523 670.523 0 0 0-4.823 3.777c-16.471 12.898-33.722 24.26-51.918 34.57l-2.662 1.522c-23.762 13.537-48.487 24.583-74.338 33.478l-3.142 1.089c-33.915 11.636-69.184 18.604-104.858 21.911l-2.994.29c-31.254 2.653-63.952 2.074-95.006-2.29l-2.112-.294c-84.19-11.82-163-45.867-264.763-133.456l-2.703-2.69c-5.015-5.026-9.819-10.155-14.422-15.56l-2.563-2.922c-8.316-9.65-15.902-19.812-23.437-30.078l-1.598-2.156c-15.445-20.887-27.83-43.638-39.402-66.844l-1.237-2.467c-21.489-43.13-34.216-91.041-40.013-138.72l-.252-2.066c-9.853-81.845 3.418-165.782 37.502-240.747l1.24-2.764c17.756-39.371 42.268-76.761 71.424-108.654a171.333 171.333 0 0 0 3.684-4.173c5.519-6.48 11.524-12.467 17.539-18.481a1737.76 1737.76 0 0 0 5.535-5.574c6.888-6.92 13.91-13.299 21.578-19.354 1.09-.923 2.175-1.852 3.25-2.793 22.122-19.262 47.057-35.168 72.75-49.207l2.7-1.487c34.6-18.949 71.875-32.676 110.3-41.513l3.03-.705c11.6-2.663 23.256-4.76 35.033-6.483l3.18-.469c20.561-2.856 41.013-3.718 61.757-3.656ZM7249 1516l-2.95.52c-51.456 9.28-99.684 31.224-140.05 64.48l-1.791 1.475c-13.412 11.135-26.443 23.193-37.193 36.959a130.38 130.38 0 0 1-4.282 5.164c-44.503 51.034-66.935 121.457-66.984 188.465l-.002 2.528c.105 82.577 35.161 157.546 92.502 215.784 3.781 3.712 7.693 7.217 11.75 10.625l1.608 1.363c15.063 12.716 31.196 23.987 48.392 33.637l2.285 1.288c14.084 7.852 28.61 14.099 43.715 19.712.81.303 1.62.606 2.456.917 21.427 7.886 43.941 12.243 66.544 15.083l2.495.317c24.93 2.712 51.83 1.962 76.505-2.317l3.474-.602c52.81-9.48 106.771-31.929 146.225-69.238 1.966-1.846 3.97-3.608 6.012-5.367 11.38-9.922 22.096-20.814 31.289-32.793a956.187 956.187 0 0 1 2.625-3.25c10.324-12.795 19.214-26.489 27.375-40.75l1.104-1.926c38.126-67.284 46.145-149.633 26.11-223.812-4.072-14.531-9.06-28.487-15.214-42.262l-1.18-2.662c-18.863-42.194-49.64-83.453-86.82-111.338-1.183-.922-2.365-1.845-3.547-2.77-48.177-37.318-110.282-62.123-171.71-62.433l-2.844-.021c-3.008-.018-6.016-.024-9.024-.026l-3.12-.002c-15.461.016-30.506.47-45.755 3.252ZM4394.648 1360.797l3.525-.021c3.734-.018 7.468-.024 11.202-.026l3.87-.002c19.11.016 37.82.476 56.755 3.252l3.679.52c44.267 6.395 86.617 19.074 127.321 37.48l2.487 1.112c32.154 14.442 62.12 33.779 89.513 55.888l2.96 2.371a334.066 334.066 0 0 1 15.458 13.293 190.31 190.31 0 0 0 4.238 3.747c5.885 5.03 11.358 10.45 16.817 15.932 1.587 1.592 3.179 3.178 4.771 4.764 5.462 5.459 10.766 10.995 15.756 16.893l2.563 2.922c68.535 79.519 107.422 183.325 107.75 327.64-6.472 87.184-37.87 172.089-91.313 241.438l-1.248 1.63c-13.358 17.42-28.021 33.694-43.502 49.245l-2.112 2.126c-4.55 4.537-9.264 8.815-14.138 12.999-1.083.95-2.165 1.9-3.246 2.852-70.346 61.362-157.894 97.89-296.066 110.398l-3.423.002c-104.262-.099-206.214-36.756-303.433-118.639a509.11 509.11 0 0 0-7.832-7.05c-7.87-7.073-15.45-14.53-22.309-22.594-1.93-2.247-3.935-4.415-5.941-6.594-5.093-5.647-9.75-11.598-14.39-17.617a691.53 691.53 0 0 0-3.895-4.98c-20.012-25.507-36.49-53.566-50.465-82.778l-1.13-2.337c-23.415-48.706-37.002-102.79-40.87-156.663l-.17-2.318c-7.525-107.295 23.828-215.525 88.17-301.682l1.367-1.835c8.241-11.017 17.099-21.49 26.367-31.653a232.702 232.702 0 0 0 3.756-4.248c4.748-5.52 9.788-10.692 14.948-15.826l2.447-2.46A273.087 273.087 0 0 1 4110 1474c1.122-.998 2.242-1.998 3.36-3 69.203-61.505 158.38-98.12 281.288-110.203ZM4362 1516l-3.355.618c-56.303 10.649-108.111 35.405-150.372 74.296a216.102 216.102 0 0 1-4.609 4.11c-12.303 10.71-22.88 22.969-32.664 35.976l-1.362 1.78c-36.277 47.408-59.22 108.312-60.638 168.22l-.078 2.64c-.945 35.624 4.101 70.485 15.078 104.36l.87 2.714c10.256 31.495 26.5 61.415 47.13 87.286l2.36 3c14.182 17.703 30.468 35.371 48.64 49 1.183.922 2.365 1.845 3.547 2.77 44.202 34.24 96.966 54.987 152.453 61.23l2.35.286c9.355 1.01 18.751.958 28.15.964l2.75.002c31.176-.037 61.001-4.894 90.75-14.252l2.465-.772c39.934-12.721 76.488-34.822 107.262-63.142a216.102 216.102 0 0 1 4.609-4.11c11.72-10.203 22.017-21.822 31.346-34.226a665.896 665.896 0 0 1 3.986-5.223c7.868-10.362 14.71-21.336 21.332-32.527l1.175-1.982c25.14-43.042 37.032-95.064 37.075-144.58l.002-2.16c-.108-72.635-27.413-145.442-76.99-198.833a211.294 211.294 0 0 1-5.7-6.445 193.52 193.52 0 0 0-22.562-22l-1.529-1.268c-50.637-41.788-115.367-70.609-181.85-70.935l-2.914-.022c-29.487-.266-29.487-.266-58.707 3.225Z"/><path fill="#FFF" d="m2208.852 1511.797 3.08-.017c2.146-.01 4.293-.016 6.44-.02 3.196-.01 6.392-.04 9.589-.072 19.487-.102 38.546 1.977 57.602 6.062l3.668.778c19.35 4.229 37.667 10.47 55.769 18.472l2.68 1.184c28.751 12.858 55.459 30.553 78.437 52.12 2.86 2.674 5.773 5.28 8.695 7.883 3.757 3.413 7.208 6.9 10.47 10.786 1.882 2.22 3.86 4.334 5.843 6.465 54.257 60.265 74.105 137.667 73.991 216.913-.004 3.816-.003 7.632-.002 11.449 0 6.593-.003 13.186-.008 19.779-.008 9.532-.011 19.064-.012 28.596-.002 15.47-.01 30.939-.019 46.408-.009 15.017-.016 30.033-.02 45.05v2.81l-.005 13.96c-.01 38.533-.028 77.065-.05 115.597a135085.968 135085.968 0 0 1-140.351.167c-15.577.013-31.153.037-46.73.064-16.012.029-32.025.045-48.037.051-9.86.004-19.721.017-29.582.042-6.785.016-13.57.02-20.354.017-3.9-.002-7.8 0-11.7.017-84.838.337-161.745-30.906-222.246-90.358-8.188-8.24-15.67-16.965-22.666-26.233a511.706 511.706 0 0 0-2.668-3.502c-48.335-62.907-68.594-143.792-58.701-222.25 9.422-66.88 39.578-125.46 86.035-174.015l2.734-2.863c4.885-5.002 9.994-9.532 15.465-13.883a153.688 153.688 0 0 0 5.32-4.477c15.372-13.48 33.313-24.48 51.481-33.777l2.553-1.322c37.646-19.312 80.774-31.69 123.299-31.881ZM5469.563 2526.063c11.375 6.411 17.618 14.092 21.618 26.511 1.458 6.098 1.288 12.157 1.151 18.387a2585.19 2585.19 0 0 0-.048 4.333c-.057 4.57-.163 9.138-.284 13.706l-.059 2.245c-.288 10.654-.7 21.303-1.151 31.951-.105 2.49-.208 4.979-.311 7.468-.414 9.991-.844 19.981-1.286 29.97-.17 3.848-.336 7.695-.5 11.543-4.04 92.999-13.478 185.865-21.408 278.596l-.417 4.877c-.392 4.592-.785 9.185-1.18 13.777l-.562 6.592c-.628 7.346-1.28 14.689-1.967 22.029-1.422 15.261-2.606 30.422-2.636 45.76-.014 1.767-.03 3.534-.047 5.3-.04 4.532-.066 9.063-.087 13.595-.037 7.296-.098 14.591-.159 21.887-.018 2.492-.03 4.983-.041 7.475-.046 8.045-.228 16.07-.636 24.106l-.115 2.32c-.348 6.272-1.088 12.454-2.152 18.647l-.355 2.084-.368 2.153-.765 4.608c-2.885 17.191-6.177 34.313-9.458 51.433l-.646 3.375c-.401 2.093-.804 4.187-1.21 6.28-3.756 19.563-2.28 37.84.093 57.475l.278 2.325c.174 1.445.352 2.89.535 4.333.521 4.29.689 8.476.61 12.796l3.938.5 2.214.281c7.292.56 12.887.343 19.625-2.64l2.169-.91a606.549 606.549 0 0 0 4.599-1.955c4.122-1.768 8.27-3.476 12.416-5.186l2.558-1.058c8.095-3.325 16.282-6.338 24.543-9.22l2.106-.735c9.179-3.198 18.399-6.27 27.63-9.316 47.82-15.78 95.235-33.155 141.202-53.761l3.032-1.351c12.766-5.702 25.346-11.76 37.905-17.899 11.994-5.862 24.041-11.587 36.188-17.125l2.094-.96c10.577-4.842 20.095-8.984 31.781-9.665l2.387-.3c3.339-.29 5.642-.288 8.554 1.476 11.311 10.236 13.752 28.465 14.809 42.949.098 1.958.187 3.916.25 5.875-22.54 12.221-45.783 22.518-69.5 32.188-40.233 14.99-40.233 14.99-71.5 42.812.014 4.455 2.494 7.88 4.875 11.5l1.203 1.843c21.722 32.509 55.554 48.957 92.922 56.657 1.997.352 3.996.694 6 1 .798 10.611-2.284 17.607-8.977 25.754-12.486 13.86-31.158 26.94-50.023 29.52-17.874.907-35.152-14.155-48.248-24.844-3.007-2.454-6.036-4.878-9.065-7.305l-1.875-1.508c-4.671-3.742-9.417-7.377-14.187-10.992-25.58-19.476-25.58-19.476-34.625-30.625l-2.184-2.672a1894.757 1894.757 0 0 1-4.5-5.543c-3.147-3.784-6.481-7.38-9.82-10.996-3.366-3.761-6.48-7.692-9.586-11.672-1.812-2.358-1.812-2.358-4.91-3.117-3.047.853-3.047.853-6.54 2.27l-2.071.798c-2.342.905-4.678 1.825-7.014 2.744l-5.081 1.975c-11.39 4.437-22.737 8.986-34.08 13.545l-2.077.835-4.19 1.684c-55.499 22.31-55.499 22.31-78.947 30.149l-2.034.686c-38.725 13.052-38.725 13.052-57.204 4.248-9.234-5.27-13.481-13.014-16.762-22.934-6.38-26.888 3.281-62.084 6.711-88.987l.87-6.842c3.072-24.174 6.307-48.325 9.646-72.464l.333-2.413c2.021-14.616 4.053-29.23 6.092-43.843 5.964-42.766 11.645-85.525 16.348-128.451l.285-2.594a1909.32 1909.32 0 0 0 2.84-27.843l.358-3.75c7.08-74.537 10.607-149.332 14.241-224.098a90588.67 90588.67 0 0 1 1.331-27.314l.135-2.759c.532-10.923 1.06-21.846 1.578-32.77.33-6.965.666-13.93 1.005-20.896.197-4.06.392-8.12.58-12.18 1.009-21.66 2.592-43.21 4.647-64.796.246-2.678.492-5.355.736-8.033 1.346-13.546 7.127-22.688 17.264-31.655 4.406-3.322 4.406-3.322 8.563-3.25ZM4918.906 2523.898c10.175 4.18 18.923 9.012 24.032 19.29 4.77 12.02 6.234 25.025 6.176 37.865v2.632c0 2.896-.009 5.792-.016 8.688l-.005 6.293c-.003 4.542-.009 9.085-.018 13.628-.013 7.34-.02 14.68-.025 22.021-.008 9.884-.018 19.768-.03 29.651a76030.919 76030.919 0 0 0-.044 89.646c-.006 54.114.097 108.227.356 162.341.034 7.139.063 14.277.09 21.415.032 8.658.072 17.316.12 25.974.025 4.346.047 8.692.061 13.039.097 28.378 1.203 56.593 4.46 84.807a4141.6 4141.6 0 0 1 1.035 9.292l.243 2.194c.738 6.764 1.24 13.535 1.659 20.326-74.069 29.814-149.982 54.764-225.907 79.375-45.608 14.765-45.608 14.765-91.079 29.942-1.333.452-2.667.904-4 1.354-65.104 22.006-65.104 22.006-124.014 56.329l-3.121 2.242c-5.85 4.083-5.85 4.083-8.766 10.301-.138 4.21 1.02 6.721 2.887 10.457l1 3c1.782 1.116 1.782 1.116 4 2l2.383 1.148c22.651 10.132 49.414 11.19 73.892 11.785 1.835.045 3.67.1 5.504.166 80.367 2.745 168.47-26.706 348.39-71.155l2.268-.624c1.932-.534 3.863-1.072 5.794-1.612C4949 3227 4949 3227 4951 3227c-1.902 14.424-7.46 28.497-19.25 37.688-4.705 2.935-9.586 5.016-14.723 7.05l-2.66 1.056c-10.063 3.94-20.28 7.367-30.555 10.706l-3.239 1.058c-33.28 10.84-66.915 20.546-100.505 30.372a8430.722 8430.722 0 0 0-19.277 5.67c-21.945 6.477-43.91 12.834-66.041 18.65l-2.525.666c-8.758 2.301-17.54 4.432-26.397 6.318l-2.324.498c-7.025 1.46-13.997 2.31-21.168 2.698l-3.84.217-2.028.112c-10 .554-19.987 1.166-29.964 2.038-27.151 2.366-54.572 4.69-81.504-.797l-2.528-.504c-20.92-4.287-41.28-11.139-60.472-20.496l-2.042-.984c-15.944-7.77-29.751-17.857-35.958-35.016-3.873-15.958.391-35.819 8.598-49.703 7.548-11.486 17.237-16.598 29.402-22.297l5.232-2.483c69.887-33.167 141.646-64.137 217.393-81.08 22.402-5.057 43.004-13.321 63.846-22.833 9.918-4.51 19.89-8.887 29.94-13.096a608.648 608.648 0 0 0 6.737-2.875c19.585-8.403 40.068-11.97 60.955-15.704 17.383-3.144 33.016-6.928 47.897-16.929l1.676-1.045c1.735-1.098 3.403-2.263 5.074-3.455l3.047-2.094c4.219-4.855 2.576-12.425 2.203-18.406l-.166-2.927c-.41-7.175-.883-14.344-1.372-21.513a4926.072 4926.072 0 0 1-1.524-23.454c-2.603-41.026-4.154-82.086-5.465-123.17l-.194-6.026A6860.6 6860.6 0 0 1 4896 2821l-.077-2.966c-1.037-40.448-1.111-80.894-1.108-121.352 0-6.974-.012-13.947-.026-20.92-.013-6.886-.018-13.77-.018-20.655 0-4.045-.002-8.09-.013-12.136-.042-16.667.209-33.266 1.17-49.908l.126-2.192c3.146-53.527 3.146-53.527 15.633-65.434 4.052-2.518 4.052-2.518 7.22-1.539ZM3063.827 38.534c7.551 6.513 14.17 13.48 20.173 21.466l1.206 1.584c26.284 34.735 36.583 77.32 31.025 120.499-6.604 41.388-29.934 79.245-63.794 103.917-34.845 24.553-77.774 34.36-119.937 27.437-24.046-4.345-46.835-13.933-66.5-28.437l-2.809-2.07c-32.174-25.147-54.237-61.68-59.89-102.336L2803 178l-.332-2.531c-3.392-30.026 2.082-60.404 15.332-87.469l.897-1.88C2831.575 59.777 2852.658 38.71 2877 23l2.984-1.965c57.439-35.777 133.472-24.782 183.843 17.499ZM864.809 3117.387a323.189 323.189 0 0 1 4.96 4.539c2.043 1.899 4.146 3.672 6.293 5.449 4.962 4.334 8.902 9.442 12.938 14.625l2.219 2.742c14.597 18.555 24.397 41.078 28.781 64.258l.53 2.746c1.617 9.251 1.87 18.33 1.845 27.691l-.003 2.399c-.047 13.06-.909 25.507-4.372 38.164l-.715 2.623c-7.333 25.854-20.548 48.207-39.285 67.377l-2.605 2.793c-19.98 20.924-47.406 34.736-75.395 41.207l-1.992.496c-20.966 5.094-47.128 4.842-68.008-.496l-2.506-.618c-21.617-5.433-40.112-14.243-57.994-27.507l-1.959-1.45c-4.56-3.467-8.57-7.304-12.541-11.425l-2.5-2.5-2.5-2.5-1.569-1.496c-4.305-4.164-7.898-8.524-11.306-13.441l-1.56-2.246c-23.991-35.042-33.576-77.516-26.092-119.466 8.502-42.56 32.068-79.187 68.144-103.53 56.327-36.844 135.348-34.49 187.192 9.566ZM7409 3008c2.688 2.313 2.688 2.313 5 5l1.492 1.637c10.039 11.91 10.624 29.46 9.508 44.363-4.749 35.557-29.583 66.807-53.367 92.156a207.268 207.268 0 0 0-5.645 6.371c-4.805 5.515-10.006 10.64-15.185 15.8a2174.803 2174.803 0 0 0-5.2 5.206c-5.7 5.704-11.452 11.246-17.603 16.467a1251.412 1251.412 0 0 0-4.813 4.375 237.286 237.286 0 0 1-10.5 8.938c-4.814 3.89-9.336 8.017-13.85 12.245-4.19 3.902-8.559 7.515-13.025 11.098-3.21 2.676-6.262 5.488-9.312 8.344-4.76 4.459-9.665 8.638-14.754 12.723-3.01 2.495-5.885 5.115-8.746 7.777-4.588 4.27-9.334 8.258-14.219 12.188-3.021 2.512-5.905 5.136-8.781 7.812-4.579 4.261-9.315 8.243-14.191 12.164-3.704 3.08-7.235 6.328-10.75 9.62-2.583 2.409-5.184 4.663-8.059 6.716.669 3.033.669 3.033 2.707 4.133l2.105.992 2.083 1.008c19.365 7.976 50.06.634 70.444-1.302 4.91-.463 9.82-.912 14.732-1.361l6.14-.562 3.11-.285c3.159-.29 6.316-.58 9.474-.872a6269.028 6269.028 0 0 1 44.154-3.9l3.146-.267 12.687-1.08c41.024-3.49 82.026-7.196 123.015-11.074 3.865-.365 7.73-.73 11.596-1.093 6.074-.572 12.148-1.148 18.22-1.728 2.232-.213 4.463-.424 6.695-.634 19.914-1.47 19.914-1.47 39.29-5.885l3.236-1.06 3.229-1.093 6.535-2.16 2.86-.96c17.187-5.518 36.836-.678 52.542 7.183 7.578 4.196 14.647 9.1 21 15-2.639 2.639-5.669 3.614-9.086 4.941l-2.183.86c-2.366.928-4.735 1.846-7.106 2.762l-2.451.949c-26.406 10.2-52.057 18.099-80.256 21.304-.739.085-1.477.17-2.239.256-13.838 1.575-27.695 2.924-41.562 4.217l-3.11.29c-9.554.89-19.108 1.769-28.662 2.645-5.3.486-10.598.977-15.897 1.472-1.99.185-3.981.368-5.973.548-2.763.25-5.525.507-8.288.766l-2.427.214c-7.728.739-14.833 2.242-21.981 5.288-38.399 16.2-82.578 21.48-123.779 25.488l-3.629.36c-36.52 3.427-75.256 4.636-111.371-2.36-1.378-.256-2.756-.51-4.134-.764-21.404-3.965-43.293-8.137-63.241-17.111l-1.926-.845c-2.003-.972-3.827-2.075-5.699-3.28l-2.648-1.58c-4.497-3.219-7.366-6.114-8.34-11.642-.467-4.194-.508-8.354-.426-12.57.039-2.643-.04-5.264-.129-7.905-.13-12.942-.13-12.942 4.041-17.548 2.908-2.65 6.152-4.702 9.502-6.755a197.484 197.484 0 0 0 4.074-3.145 866.216 866.216 0 0 1 3.614-2.668c1.37-1.017 2.74-2.035 4.109-3.054l2.096-1.558c3.536-2.643 7.04-5.327 10.544-8.012l2.127-1.63a19887.2 19887.2 0 0 0 4.277-3.279c2.911-2.23 5.825-4.457 8.74-6.684A5888.346 5888.346 0 0 0 7169.5 3249c7.09-5.46 14.2-10.893 21.31-16.327 3.564-2.723 7.127-5.448 10.69-8.173 4.296-3.286 8.593-6.571 12.89-9.855 4.205-3.214 8.408-6.429 12.61-9.645l1.78-1.363c3.748-2.87 7.488-5.748 11.22-8.637l1.706-1.319a608.545 608.545 0 0 0 23.633-19.259c1.717-1.47 3.44-2.933 5.165-4.395a632.465 632.465 0 0 0 21.003-18.647 606.617 606.617 0 0 1 4.532-4.138c6.433-5.844 12.679-11.857 18.836-17.992l2.126-2.112a231.13 231.13 0 0 0 11.4-12.298c2.217-2.55 4.535-5.002 6.849-7.465 6.778-7.303 13.22-15.08 18.75-23.375-3.256-7.478-5.704-13.008-13-17-16.128-5.376-38.978 2.678-54.938 6.5a2854.95 2854.95 0 0 0-34.523 8.32l-2.849.704-2.842.703c-16.217 4.007-32.44 7.89-48.785 11.336l-2.344.497c-27.235 5.759-45.426 3.473-70.719-8.06-.92-7.787-1.136-15.54-1.188-23.375l-.039-2.881-.003-2.767-.013-2.467c.294-3.036 1.247-5.636 2.243-8.51 50.507-8.949 101.068-17.588 151.624-26.252 11.864-2.033 23.728-4.068 35.592-6.103a448420.268 448420.268 0 0 1 65.701-11.263l2.235-.383L7386 3002l3.267-.625c7.256-.995 13.86 2.74 19.733 6.625ZM4192.7 3045.838c36.445-2.042 79.21 18.69 106.3 42.162l1.852 1.563c5.997 5.477 10.056 12.502 14.148 19.437l1.085 1.833c11.433 19.657 20.515 42.09 25.915 64.167l.578 2.282c1.642 7.168 1.768 14.199 1.735 21.53l-.015 3.87c-.348 28.4-6.272 62.317-26.298 83.88-52.56 49.33-155.216 63.542-224 74.438l-1.997.32c-30.958 4.914-63.044 6.277-94.003.68l-2.69-.456c-26.775-4.643-53.134-14.275-77.31-26.544l-2.697-1.359c-28-14.28-53.48-34.223-64.338-64.641-4.891-15.208-4.79-31.212 2.355-45.672 7.64-13.444 18.557-24.438 30.851-33.642 4.416-3.315 8.522-6.883 12.587-10.623a230.202 230.202 0 0 1 5.93-5.25c10.043-8.792 19.628-18.043 29-27.543l2.543-2.575c3.464-3.509 6.925-7.02 10.372-10.544 10.188-10.408 20.212-20.119 32.397-28.151l2.383-1.59c1.847-1.191 3.71-2.317 5.617-3.41l2.1-1.211c61.73-34.901 135.575-48.748 205.6-52.951Zm-41.612 59.247c-3.632.701-7.267 1.386-10.901 2.074a4967.504 4967.504 0 0 0-19.337 3.71c-4.151.804-8.304 1.6-12.457 2.388-42.527 8.069-77.686 20.097-112.393 46.743-1.196.91-2.393 1.818-3.59 2.727A1041.068 1041.068 0 0 0 3983 3170l-3.45 2.672c-6.405 4.98-12.695 10.066-18.86 15.341a401.694 401.694 0 0 1-10.377 8.55c-5.482 4.457-10.398 9.371-15.313 14.437-2.421 2.444-4.853 4.862-7.36 7.219-9.226 8.805-20.388 20.97-21.14 34.344.405 7.768 4.934 14.267 10.5 19.437 42.57 34.973 110.797 43.4 163.545 38.256 65.604-6.658 151.962-17.153 200.455-66.256l2.11-2.078c13.62-14.32 14.382-35.158 14.171-53.777-.211-6.995-1.385-12.725-4.281-19.145l-1.062-2.57c-12.785-28.322-43.845-49.646-71.977-60.703-23.592-8.747-44.905-5.289-68.873-.642ZM5984 2542c5.264 1.165 8.148 3.698 11.125 8.125 3.713 6.85 5.95 14.263 8.189 21.695.593 1.885 1.282 3.74 1.987 5.586 2.857 8.248 2.81 15.744 2.44 24.371a2418.585 2418.585 0 0 1-.63 15.64 14731.24 14731.24 0 0 1-2.227 50.713l-.869 19.33c-.663 14.753-1.329 29.507-1.996 44.26l-.989 21.914a472490.53 472490.53 0 0 1-3.609 79.855l-.106 2.352a6799014.567 6799014.567 0 0 0-.642 14.161c-1.148 25.36-2.29 50.719-3.43 76.078a198259.643 198259.643 0 0 1-4.04 89.49l-.1 2.2c-.528 11.666-1.052 23.332-1.574 34.998a39728.99 39728.99 0 0 1-1.59 35.145c-.289 6.341-.576 12.682-.857 19.023a8681.21 8681.21 0 0 1-.79 17.422c-.096 2.097-.19 4.193-.281 6.29-.422 9.709-.874 19.259-2.588 28.84-2.11 12.528.024 25.84 1.604 38.325l.67 5.449c2.757 22.18 6.067 44.285 9.367 66.39.67 4.497 1.335 8.995 2 13.494 3.565 24.27 3.565 24.27 7.291 48.514l.582 3.699c.335 2.11.674 4.22 1.02 6.329.769 4.83 1.353 9.418 1.043 14.312-1.469 1.672-1.469 1.672-3.5 2.75l-2.219 1.184L5997 3361l-2.031.973c-8.72 3.72-17.26 2.113-25.969-.973-17.444-8.463-26.33-25.195-32.563-42.709A494.077 494.077 0 0 1 5934 3311l-.707-2.154c-6.194-19.358-10.445-40.741-10.45-61.095l-.01-2.713c-.007-2.975-.005-5.95-.001-8.925l.002-3.166c.031-25.97.832-51.91 1.72-77.862.136-3.968.269-7.937.401-11.905 2.59-77.463 5.535-154.934 12.045-232.18l.555-6.6c1.97-23.396 3.946-46.79 5.967-70.18 3.144-36.08 3.144-36.08 5.478-72.22l.165-3.074c.793-15.27 1.024-30.538 1.2-45.825.616-53.406 1.74-107.54 14.26-159.726l.588-2.48c2.751-10.724 8.777-9.84 18.787-8.895ZM3601.5 3049.813l2.743.001c53.27.096 118.12 4.313 158.757 43.186l2.121 1.895c13.724 12.706 21.928 32.968 23.021 51.515.418 11.415.532 21.956-4.142 32.59l-1.508 3.473c-5.377 11.491-12.806 20.941-21.37 30.218-1.952 2.124-3.822 4.296-5.684 6.497-2.878 3.3-5.965 6.162-9.305 8.988-2.25 1.924-4.403 3.932-6.57 5.949-6.43 5.792-13.322 10.956-20.244 16.138a1337.096 1337.096 0 0 0-4.623 3.478c-11.89 8.982-24.091 17.313-36.696 25.259l-2.586 1.637c-45.488 28.716-94.162 54.49-145.414 71.363l-3.77 1.297c-11.485 3.454-29.443 7.169-40.585 1.506-4.322-3.22-7.358-6.94-9.645-11.803-.02-5.21 2.48-9.608 4.875-14.125l1.192-2.25c6.826-12.34 15.568-19.955 28.527-25.328l2.565-1.074c2.779-1.162 5.56-2.317 8.341-3.473l5.84-2.439a2372.188 2372.188 0 0 1 32.13-13.123c95.734-36.534 95.734-36.534 163.096-108.536 4.329-10.149 6.555-20.726 3.633-31.644-5.097-11.245-15.093-16.79-26.199-21.008-9.466-3.396-19.022-5.536-28.938-7.188l-2.75-.469c-21.467-3.32-43.2-3.688-64.874-3.593l-3.84.01c-19.607.056-39.066.43-58.598 2.24l-2.057.184c-84.68 6.863-84.68 6.863-157.763 44.918-2.845 3.782-3.941 7.37-5.18 11.898l-.833 2.973c-.947 3.422-1.87 6.849-2.792 10.277-4.088 15.036-8.66 29.9-13.375 44.75-3.933-1.486-5.218-3.524-7.242-7.137l-1.784-3.166-1.849-3.385-1.9-3.446c-4.408-8.11-8.331-16.082-11.225-24.866l-1.234-3.43c-5.988-18.742-4.342-40.073 4.546-57.57 16.419-28.032 56.808-36.13 86.003-43.86 47.632-12.42 96.674-23.002 145.685-28.14l2.819-.31c9.543-.936 19.102-.89 28.681-.878ZM6829.184 3094.023l3.444.322c2.386.225 4.772.452 7.158.681 3.664.35 7.328.686 10.993 1.02l6.967.665 3.33.3 3.066.303 2.704.256c2.154.43 2.154.43 4.154 2.43l-2.375.813c-2.906 1.035-2.906 1.035-4.625 4.187-.546 2.314-.546 2.314-.852 4.887l-.39 2.842-.383 2.959-.406 2.994c-.33 2.438-.653 4.878-.969 7.318a518.798 518.798 0 0 1-16.195 6.305c-29.736 10.997-58.461 24.137-87.034 37.846-1.605.77-3.21 1.535-4.817 2.301-13.119 6.277-25.663 13.41-38.143 20.871a1007.988 1007.988 0 0 1-7.737 4.56c-29.063 16.755-29.063 16.755-46.949 43.492-.335 9.723 3.391 17.4 9.672 24.719 24.752 24.176 67.588 27.718 100.158 31.545 1.794.213 3.586.437 5.376.687 14.5 1.936 28.408-.024 42.734-2.248 2.081-.314 4.163-.628 6.244-.94 4.453-.672 8.905-1.35 13.357-2.034 7.047-1.082 14.097-2.149 21.147-3.214 11.153-1.687 22.304-3.384 33.455-5.086 19.968-3.047 39.938-6.076 59.909-9.1 7-1.061 13.998-2.127 20.997-3.196 4.36-.666 8.72-1.328 13.08-1.99 2.012-.306 4.024-.614 6.036-.923 16.894-2.594 16.894-2.594 24.738-3.454l2.662-.292c2.878.188 4.275 1.088 6.533 2.842 4.028 4.918 3.557 10.177 3.215 16.247l-.096 3.228A325.21 325.21 0 0 1 7029 3296c-19.31 10.316-38.718 18.61-60.266 22.898l-3.775.765c-14.11 2.838-28.284 5.331-42.467 7.774-2.223.383-4.445.767-6.668 1.152-37.318 6.454-74.702 12.587-112.261 17.474l-2.361.317c-15.103 2.01-30.208 2.313-45.39.87l-2.885-.269c-36.604-3.649-71.86-13.913-104.927-29.981l-2.116-1.027c-9.032-4.446-17.057-9.615-24.884-15.973l-2.238-1.773c-12.384-10.244-21.595-25.165-23.762-41.227-1.773-22.293 4.926-42.548 19.176-59.777 8.89-10.322 18.696-19.378 29.824-27.223l1.736-1.232c16.32-11.483 34.143-20.329 51.846-29.448a837.255 837.255 0 0 0 13.187-6.942c78.393-42.158 78.393-42.158 118.415-38.355ZM6530.215 3092.29c4.604 1.174 8.085 2.124 11.66 5.46 2.318 4.636 2.47 8.789 1.25 13.75-5.971 17.727-20.297 33.42-32.125 47.5l-1.308 1.565c-5.436 6.504-10.956 12.91-16.657 19.185-1.809 2-3.584 4.023-5.347 6.063-3.63 4.168-7.388 8.215-11.144 12.268a808.718 808.718 0 0 0-9.044 9.919c-4.901 5.463-9.872 10.86-14.867 16.237-1.623 1.753-3.24 3.511-4.856 5.27-8.044 8.713-16.34 17.162-24.715 25.555l-1.63 1.64c-5.965 5.986-11.996 11.815-18.432 17.298a915.246 915.246 0 0 0-3.395 3.035c-9.734 8.66-20.033 16.363-30.605 23.965a7030.17 7030.17 0 0 0-4.578 3.316 3405.76 3405.76 0 0 1-8.961 6.47 1918.3 1918.3 0 0 0-8.922 6.46c-10.707 7.791-21.51 15.425-32.539 22.754l-3.02 2.02c-34.735 21.715-93.996 41.684-135.48 32.98-28.768-9.125-45.827-31.546-59.32-57.316-29.217-57.608-29.835-119.503-10.074-180.09 2.676-7.767 2.676-7.767 6.636-10.457l3.133-1.45c1.029-.49 2.057-.982 3.117-1.488 5.467-2.18 5.467-2.18 8.008-2.199a50.25 50.25 0 0 1 6.313 5l3.437 3.09 1.676 1.527c1.702 1.535 1.702 1.535 4.199 3.324 5.147 3.815 5.147 3.815 5.739 7.046-.2 6.384-.771 12.698-1.432 19.05-4.268 41.093-7.905 94.026 19.1 128.56 11.992 13.999 26.318 20.226 44.566 21.692 67.156 1.608 128.251-49.827 174.75-92.852a263.224 263.224 0 0 1 6.465-5.75c5.884-5.106 11.517-10.495 17.2-15.824 3.157-2.96 6.322-5.911 9.487-8.863l3.75-3.5 9.375-8.75 3.752-3.502c3.112-2.905 6.225-5.81 9.338-8.713 8.435-7.868 16.856-15.752 25.269-23.644L6480 3130.5l4-3.75 8-7.5 2-1.879a851.269 851.269 0 0 1 3.993-3.713c3.477-3.223 6.843-6.502 10.112-9.935 12.33-12.719 12.33-12.719 22.11-11.434Z"/><path fill="#FFF" d="M3482 3212c5.6 4.78 10.435 10.838 11.254 18.319.259 7.89-1.703 14.003-4.691 21.244l-1.453 3.615c-4.658 11.396-10.163 22.385-15.83 33.307-9.963 19.25-17.217 38.655-23.093 59.515-.695 2.436-1.392 4.87-2.089 7.306A3393.38 3393.38 0 0 0 3440 3377l-.867 3.12c-28.84 104.027-50.753 210.248-67.133 390.88-4.161 1.043-8.33 2.056-12.5 3.063l-3.555.892c-7.528 1.798-13.35 3.01-20.668-.12-9.79-6.112-17.533-13.602-21.277-24.835-6.687-85.009 21.083-177.727 78-394l.947-3.28c16.825-58.301 16.825-58.301 29.053-83.72l1.554-3.253a1439.09 1439.09 0 0 1 5.071-10.434l1.594-3.295c9.827-19.751 25.686-30.293 44.668-40.373 2.815-.86 4.339-.616 7.113.355Z"/></svg>