<svg xmlns="http://www.w3.org/2000/svg" width="689" height="621" fill="none"><path stroke="#DDD" d="m688 135.098-53.794 14.711L348.813 1 117.781 109.07v88.267l231.032-88.267 41.337 21.501-14.723 4.527-26.614-10.185-231.032 82.609v125.045l231.032-58.845v11.316l-244.622 59.411v-18.672l10.759-2.263v123.347l365.801-47.528v39.041L0 488.165v-27.159l87.203-9.053v158.428l-8.493 3.395V488.165h-8.494v29.989h24.349v-26.028h23.216v110.9h129.106V466.099l15.289-2.264 11.325 2.264v150.506L262.176 620V471.191h29.445l53.795 12.448v123.347l110.986-3.96V620h16.421V446.861l-16.421 5.092v134.664h27.746V451.953l60.589 4.527v156.164h16.422V456.48l7.361 3.961v152.203l18.12-9.618h17.554v9.618h17.554V471.191l43.036 7.921-2.832 131.269 15.289 2.263-2.831-135.795 10.759-5.658-188.563-32.817v-35.081l188.563 39.042v-80.346l-58.325 7.356-122.311-30.554v56.581l122.311 23.764V285.038l-122.311-36.777v67.331l105.89 29.423V303.71l73.047 37.91v-62.24l-43.602 5.658v-19.237l45.301-7.356-1.699-42.436-52.662 11.882-130.238-51.489V153.77l130.238 50.357 54.361-11.316v11.316l-54.361 11.882-139.865-54.884v151.072L363.536 279.38v10.751l-14.723 8.487v112.031"/></svg>