<svg xmlns="http://www.w3.org/2000/svg" width="590" height="531" fill="none"><path stroke="#758285" d="m1.5 164.922 48.879 9.671 111.309-43.035v19.341L50.379 194.902 1.5 184.748v38.022l41.136 4.53v16.44l-37.264-4.835v53.19l62.43-32.398v35.299l90.498-25.144V212.31L53.767 243.74v114.601L158.3 338.032v-48.355L53.767 315.789l-51.84-7.131v70.077l163.148-33.933v29.98L1.927 402.827l11.188 4.836v116.051h8.227V409.597l36.78-6.77v120.887h15.003v-8.22h15.002l15.487 8.22V393.64l6.291-3.385v133.459h14.035V390.255l51.782-3.868v115.084h23.714V386.387l-14.035-4.352V530h14.035v-14.506l94.854 3.384V413.465l45.975-10.638h25.166V530l-9.679-2.901V398.475l9.679-1.934 13.067 1.934v117.019h110.34v-94.776h19.842v22.244h20.81v-25.628h-7.259v107.347l-7.259-2.901V386.387l74.528 7.736v23.211l-410.874-42.552v-33.365l312.632 40.618V276.622l9.195 1.934V294.513L291.386 243.74v-9.671l197.452 50.289V177.495l-197.452-70.598-22.745 8.704-12.583-3.869 35.328-18.375 197.452 75.434V93.357L291.386 1 47.476 128.173 1.5 115.601v49.321Zm0 0v9.671l48.879 10.155 119.536-46.904v129.107l108.889-28.046v9.187l12.582 7.254v95.742"/></svg>