<svg xmlns="http://www.w3.org/2000/svg" width="1751" height="477" fill="none"><path stroke="#DDD" d="M0 476h288.541V233.535l-48.843 19.86v100.131l42.139-14.068v120.819h-42.139v-95.165l-100.559 13.24v9.103l25.858-3.31v66.202H70.185V292.289l94.812-33.928v-11.586l-34.477 14.068v-65.374l43.097-23.171v134.887l-31.605 8.275v8.275l31.605-5.792v141.13l-59.378 1.204V163.195l65.124-43.859 48.843 26.481v314.46h-40.224l1.916-242.465 98.643-65.375 114.925 21.516v50.479l-108.221-18.206-55.547 25.654v-36.411l50.759-32.274 40.223 5.793 1.916-81.925 82.362-30.619 1.916 167.988L521.263 238.5l1.916 206.054h28.731V161.54l-115.882-23.171-1.916-102.613L332.596 74.65V39.894L434.112 1l249.847 90.642v366.98H660.13v-51.307h-67.039v-19.033h67.039v-42.204h-67.039V328.7h63.208l-1.915-148.954-73.743-13.241v45.514l61.293 4.965v18.206l-61.293-4.965v40.548h64.166v17.379h-64.166v172.125H474.336V278.221l-139.825-19.033L336.426 476h-23.942c-.319-81.373-.766-244.12 0-244.12s124.821 18.757 186.752 28.136v215.156H1751"/></svg>