<svg xmlns="http://www.w3.org/2000/svg" aria-hidden="true" style="position:absolute;width:0;height:0;overflow:hidden">
  <defs>
   
<symbol id="icon-menu-hamburger" viewBox="0 0 47 32">
<path d="M-0.222 2.077c0 1.205 0.977 2.182 2.182 2.182h42.965c1.205 0 2.182-0.977 2.182-2.182s-0.977-2.182-2.182-2.182h-42.965c-1.205 0-2.182 0.977-2.182 2.182zM-0.222 15.615c0 1.205 0.977 2.182 2.182 2.182h42.965c1.205 0 2.182-0.977 2.182-2.182s-0.977-2.182-2.182-2.182h-42.965c-1.205 0-2.182 0.977-2.182 2.182zM-0.222 29.154c0 1.205 0.977 2.182 2.182 2.182h42.965c1.205 0 2.182-0.977 2.182-2.182s-0.977-2.182-2.182-2.182h-42.965c-1.205 0-2.182 0.977-2.182 2.182z"></path></symbol>
<symbol id="icon-home-outline" viewBox="0 0 41 32">
<path stroke-linejoin="round" stroke-linecap="round" stroke-miterlimit="4" stroke-width="0.4923" d="M6.385 13.25v14.75c0 0.265 0.134 0.519 0.374 0.707s0.564 0.293 0.903 0.293h7.661v-8.5c0-0.398 0.202-0.779 0.561-1.061s0.846-0.439 1.354-0.439h6.385c0.508 0 0.994 0.158 1.354 0.439s0.561 0.663 0.561 1.061v8.5h7.662c0.338 0 0.663-0.105 0.903-0.293s0.374-0.442 0.374-0.707v-14.75"></path>
<path stroke-linejoin="round" stroke-linecap="round" stroke-miterlimit="4" stroke-width="0.4923" d="M38.308 16l-17.009-12.75c-0.399-0.33-1.332-0.334-1.738 0l-17.007 12.75M31.923 11.188v-7.188h-3.831v4.313"></path>
</symbol>
<symbol id="icon-Frame" viewBox="0 0 30 32">
<path stroke-linejoin="miter" stroke-linecap="butt" stroke-miterlimit="4" stroke-width="0.4848" d="M28.364 13.333c0 7.226-5.966 13.091-13.333 13.091s-13.333-5.865-13.333-13.091 5.966-13.091 13.333-13.091 13.333 5.865 13.333 13.091z"></path>
<path stroke-linejoin="miter" stroke-linecap="butt" stroke-miterlimit="4" stroke-width="0.4848" d="M24.97 13.333c0 5.629-4.456 10.182-9.939 10.182s-9.939-4.553-9.939-10.182 4.456-10.182 9.939-10.182 9.939 4.553 9.939 10.182zM25.697 21.333l3.879 5.835h-4.109l-1.608 3.862-3.738-5.576M4.364 21.333l-3.879 5.835h4.109l1.608 3.862 3.738-5.576"></path>
</symbol>
<symbol id="icon-people-outline" viewBox="0 0 38 32">
<path stroke-linejoin="round" stroke-linecap="round" stroke-miterlimit="4" stroke-width="0.4923" d="M23.126 15.015c-0.174 2.92-1.969 5.169-3.926 5.169s-3.755-2.249-3.926-5.169c-0.179-3.038 1.569-5.169 3.926-5.169s4.104 2.187 3.926 5.169z"></path>
<path stroke-linejoin="miter" stroke-linecap="butt" stroke-miterlimit="10" stroke-width="0.4923" d="M18.954 22.646c-3.899 0-7.649 2.276-8.588 6.71-0.124 0.586 0.189 1.167 0.702 1.167h15.774c0.513 0 0.824-0.58 0.702-1.167-0.939-4.505-4.689-6.71-8.588-6.71z"></path>
<path stroke-linejoin="round" stroke-linecap="round" stroke-miterlimit="4" stroke-width="0.4923" d="M10.821 16.242c-0.141 2.206-1.608 3.942-3.19 3.942s-3.052-1.736-3.19-3.942c-0.144-2.295 1.285-3.935 3.19-3.935s3.334 1.682 3.19 3.935z"></path>
<path stroke-linejoin="miter" stroke-linecap="round" stroke-miterlimit="10" stroke-width="0.4923" d="M11.323 22.91c-1.072-0.546-2.254-0.756-3.505-0.756-3.090 0-6.066 1.707-6.812 5.032-0.098 0.44 0.151 0.875 0.557 0.875h6.671"></path>
<path stroke-linejoin="round" stroke-linecap="round" stroke-miterlimit="4" stroke-width="0.4923" d="M27.087 16.242c0.141 2.206 1.608 3.942 3.19 3.942s3.051-1.736 3.19-3.942c0.144-2.295-1.285-3.935-3.19-3.935s-3.334 1.682-3.19 3.935z"></path>
<path stroke-linejoin="miter" stroke-linecap="round" stroke-miterlimit="10" stroke-width="0.4923" d="M27.077 22.91c1.072-0.546 2.254-0.756 3.505-0.756 3.090 0 6.066 1.707 6.812 5.032 0.098 0.44-0.151 0.875-0.557 0.875h-6.671"></path>
</symbol>
<symbol id="icon-fb" viewBox="0 0 32 32">
<path d="M32 16.040c0-8.854-7.168-16.040-16-16.040s-16 7.186-16 16.040c0 7.763 5.504 14.229 12.8 15.72v-10.907h-3.2v-4.811h3.2v-4.011c0-3.095 2.512-5.614 5.6-5.614h4v4.811h-3.2c-0.88 0-1.6 0.722-1.6 1.605v3.208h4.8v4.811h-4.8v11.149c8.080-0.802 14.4-7.634 14.4-15.96z"></path>
</symbol>
<symbol id="icon-linkdn" viewBox="0 0 32 32">
<path d="M11.886 11.151h5.943v2.96c0.857-1.703 3.051-3.232 6.349-3.232 6.322 0 7.823 3.389 7.823 9.606v11.515h-6.4v-10.099c0-3.541-0.856-5.537-3.035-5.537-3.022 0-4.278 2.152-4.278 5.536v10.101h-6.4v-20.849zM0.913 31.728h6.4v-20.849h-6.4v20.849zM8.229 4.080c0 0.001 0 0.001 0 0.002 0 1.127-0.461 2.147-1.204 2.881l-0 0c-0.748 0.738-1.776 1.194-2.911 1.194s-2.162-0.456-2.91-1.194l0 0c-0.742-0.737-1.201-1.757-1.203-2.884v-0c0-1.083 0.432-2.12 1.205-2.885 0.747-0.739 1.775-1.196 2.91-1.196s2.162 0.457 2.91 1.196l-0-0c0.743 0.736 1.204 1.756 1.205 2.884v0z"></path>
</symbol>
<symbol id="icon-Instagram" viewBox="0 0 32 32">
<path d="M9.28 0h13.44c5.12 0 9.28 4.16 9.28 9.28v13.44c0 5.125-4.155 9.28-9.28 9.28v0h-13.44c-5.12 0-9.28-4.16-9.28-9.28v-13.44c0-5.125 4.155-9.28 9.28-9.28v0zM8.96 3.2c-3.181 0-5.76 2.579-5.76 5.76v0 14.080c0 0.001 0 0.002 0 0.003 0 3.179 2.577 5.757 5.757 5.757 0.001 0 0.002 0 0.004 0h14.080c3.181 0 5.76-2.579 5.76-5.76v0-14.080c0-0.001 0-0.002 0-0.003 0-3.179-2.577-5.757-5.757-5.757-0.001 0-0.002 0-0.004 0h-14.080zM24.4 5.6c1.105 0 2 0.895 2 2s-0.895 2-2 2v0c-1.105 0-2-0.895-2-2s0.895-2 2-2v0zM16 8c4.418 0 8 3.582 8 8s-3.582 8-8 8v0c-4.418 0-8-3.582-8-8s3.582-8 8-8v0zM16 11.2c-2.651 0-4.8 2.149-4.8 4.8s2.149 4.8 4.8 4.8v0c2.651 0 4.8-2.149 4.8-4.8s-2.149-4.8-4.8-4.8v0z"></path>
</symbol>
  </defs>
</svg>
