<svg xmlns="http://www.w3.org/2000/svg" width="400" height="400" fill="none"><path fill="#F6F6F6" fill-rule="evenodd" d="M352.026 50.051c9.411 0 17.039-7.628 17.039-17.04 0-9.41-7.628-17.039-17.039-17.039-9.411 0-17.04 7.63-17.04 17.04s7.629 17.04 17.04 17.04ZM179.038 78.808s13.145-10.223 23.856 0c10.71 10.224 3.408 20.448 3.408 20.448l-13.631 17.04s-6.816 8.7 3.407 17.039c12.532 10.224 20.449 0 20.449 0l81.789-78.382s12.302-11.028 23.855 0c10.224 9.76 3.408 20.448 3.408 20.448l-47.711 47.71s-6.816 10.224 3.408 20.448 20.447 3.408 20.447 3.408l20.449-20.448s10.935-12.922 23.856 0c11.338 11.34 0 23.856 0 23.856l-13.633 17.039s-10.816 10.853 0 20.448c5.999 5.322 10.223 3.408 10.223 3.408l6-4.902s13.632-10.223 25.503 4.902-1.648 29.178-1.648 29.178l-29.855 32.164-81.79 78.383s-11.35 12.506-23.855 0c-13.631-13.632.001-23.856.001-23.856l10.224-10.224s10.224-13.631 0-23.855-23.856 0-23.856 0L162 337.81s-14.807 15.867-27.263 3.408c-12.044-12.046-6.291-19.914-3.667-23.502.09-.123.176-.24.257-.353 2.467-3.408 13.632-17.04 13.632-17.04s6.817-6.816-3.408-17.039c-10.225-10.224-17.039-3.408-17.039-3.408l-64.75 61.342s-8.961 8.081-20.448-3.408c-13.63-13.631-3.407-23.855-3.407-23.855l44.303-44.303s10.224-10.224 0-20.448c-7.606-7.605-17.039-6.816-17.039-6.816L46.13 256.02s-9.77 5.558-20.447-6.816c-9.505-11.014 0-20.447 0-20.447L179.038 78.808Zm74.977 180.623h61.342V194.68s-6.815-35.032-47.71-34.079c-26.343.614-47.711 13.631-47.711 47.711 0 44.433 34.079 51.119 34.079 51.119Zm-136.317 0h-17.04v-61.343s0-37.487 47.711-37.487c51.119 0 51.119 37.487 51.119 37.487v61.343h-17.039v-54.527s-1.522-27.263-30.672-27.263c-29.15 0-34.079 17.039-34.079 27.263v54.527Zm139.724-17.043h44.304v-44.302s-3.408-20.445-34.079-20.445c-18.821 0-31.538 15.275-30.671 34.076 1.415 30.671 20.446 30.671 20.446 30.671Zm-126.911 124.6c0 9.411-7.629 17.04-17.04 17.04-9.41 0-17.04-7.629-17.04-17.04s7.63-17.04 17.04-17.04c9.411 0 17.04 7.629 17.04 17.04Z" clip-rule="evenodd"/></svg>