<svg aria-hidden="true" style="position: absolute; width: 0; height: 0; overflow: hidden;" version="1.1" xmlns="http://www.w3.org/2000/svg" xmlns:xlink="http://www.w3.org/1999/xlink">
<defs>
<symbol id="icon-menu" viewBox="0 0 32 32">
<path d="M2 6h28v6h-28zM2 14h28v6h-28zM2 22h28v6h-28z"></path>
</symbol>

<symbol id="icon-menu-burger" viewBox="0 0 62 32">
<path stroke-linejoin="miter" stroke-linecap="butt" stroke-miterlimit="4" stroke-width="2.4615" d="M1.231 1.231h59.077M1.231 16h59.077M1.231 30.769h59.077"></path>
</symbol>

<symbol id="icon-menu-close-burger" viewBox="0 0 17 32">
<path stroke-linejoin="miter" stroke-linecap="butt" stroke-miterlimit="4" stroke-width="1.2308" d="M16.188 1.327l-0.379 29.536M1.42 1.137l-0.379 29.536"></path>
</symbol>

<symbol id="icon-home-outline" viewBox="0 0 41 32">
<path stroke-linejoin="round" stroke-linecap="round" stroke-miterlimit="4" stroke-width="0.4923" d="M6.385 13.25v14.75c0 0.265 0.134 0.519 0.374 0.707s0.564 0.293 0.903 0.293h7.661v-8.5c0-0.398 0.202-0.779 0.561-1.061s0.846-0.439 1.354-0.439h6.385c0.508 0 0.994 0.158 1.354 0.439s0.561 0.663 0.561 1.061v8.5h7.662c0.338 0 0.663-0.105 0.903-0.293s0.374-0.442 0.374-0.707v-14.75"></path>
<path stroke-linejoin="round" stroke-linecap="round" stroke-miterlimit="4" stroke-width="0.4923" d="M38.308 16l-17.009-12.75c-0.399-0.33-1.332-0.334-1.738 0l-17.007 12.75M31.923 11.188v-7.188h-3.831v4.313"></path>
</symbol>

<symbol id="icon-Frame" viewBox="0 0 30 32">
<path stroke-linejoin="miter" stroke-linecap="butt" stroke-miterlimit="4" stroke-width="0.4848" d="M28.364 13.333c0 7.226-5.966 13.091-13.333 13.091s-13.333-5.865-13.333-13.091 5.966-13.091 13.333-13.091 13.333 5.865 13.333 13.091z"></path>
<path stroke-linejoin="miter" stroke-linecap="butt" stroke-miterlimit="4" stroke-width="0.4848" d="M24.97 13.333c0 5.629-4.456 10.182-9.939 10.182s-9.939-4.553-9.939-10.182 4.456-10.182 9.939-10.182 9.939 4.553 9.939 10.182zM25.697 21.333l3.879 5.835h-4.109l-1.608 3.862-3.738-5.576M4.364 21.333l-3.879 5.835h4.109l1.608 3.862 3.738-5.576"></path>
</symbol>

<symbol id="icon-people-outline" viewBox="0 0 38 32">
<path stroke-linejoin="round" stroke-linecap="round" stroke-miterlimit="4" stroke-width="0.4923" d="M23.126 15.015c-0.174 2.92-1.969 5.169-3.926 5.169s-3.755-2.249-3.926-5.169c-0.179-3.038 1.569-5.169 3.926-5.169s4.104 2.187 3.926 5.169z"></path>
<path stroke-linejoin="miter" stroke-linecap="butt" stroke-miterlimit="10" stroke-width="0.4923" d="M18.954 22.646c-3.899 0-7.649 2.276-8.588 6.71-0.124 0.586 0.189 1.167 0.702 1.167h15.774c0.513 0 0.824-0.58 0.702-1.167-0.939-4.505-4.689-6.71-8.588-6.71z"></path>
<path stroke-linejoin="round" stroke-linecap="round" stroke-miterlimit="4" stroke-width="0.4923" d="M10.821 16.242c-0.141 2.206-1.608 3.942-3.19 3.942s-3.052-1.736-3.19-3.942c-0.144-2.295 1.285-3.935 3.19-3.935s3.334 1.682 3.19 3.935z"></path>
<path stroke-linejoin="miter" stroke-linecap="round" stroke-miterlimit="10" stroke-width="0.4923" d="M11.323 22.91c-1.072-0.546-2.254-0.756-3.505-0.756-3.090 0-6.066 1.707-6.812 5.032-0.098 0.44 0.151 0.875 0.557 0.875h6.671"></path>
<path stroke-linejoin="round" stroke-linecap="round" stroke-miterlimit="4" stroke-width="0.4923" d="M27.087 16.242c0.141 2.206 1.608 3.942 3.19 3.942s3.051-1.736 3.19-3.942c0.144-2.295-1.285-3.935-3.19-3.935s-3.334 1.682-3.19 3.935z"></path>
<path stroke-linejoin="miter" stroke-linecap="round" stroke-miterlimit="10" stroke-width="0.4923" d="M27.077 22.91c1.072-0.546 2.254-0.756 3.505-0.756 3.090 0 6.066 1.707 6.812 5.032 0.098 0.44-0.151 0.875-0.557 0.875h-6.671"></path>
</symbol>

<symbol id="icon-fb" viewBox="0 0 32 32">
<path d="M32 16.040c0-8.854-7.168-16.040-16-16.040s-16 7.186-16 16.040c0 7.763 5.504 14.229 12.8 15.72v-10.907h-3.2v-4.811h3.2v-4.011c0-3.095 2.512-5.614 5.6-5.614h4v4.811h-3.2c-0.88 0-1.6 0.722-1.6 1.605v3.208h4.8v4.811h-4.8v11.149c8.080-0.802 14.4-7.634 14.4-15.96z"></path>
</symbol>

<symbol id="icon-linkdn" viewBox="0 0 32 32">
<path d="M11.886 11.151h5.943v2.96c0.857-1.703 3.051-3.232 6.349-3.232 6.322 0 7.823 3.389 7.823 9.606v11.515h-6.4v-10.099c0-3.541-0.856-5.537-3.035-5.537-3.022 0-4.278 2.152-4.278 5.536v10.101h-6.4v-20.849zM0.913 31.728h6.4v-20.849h-6.4v20.849zM8.229 4.080c0 0.001 0 0.001 0 0.002 0 1.127-0.461 2.147-1.204 2.881l-0 0c-0.748 0.738-1.776 1.194-2.911 1.194s-2.162-0.456-2.91-1.194l0 0c-0.742-0.737-1.201-1.757-1.203-2.884v-0c0-1.083 0.432-2.12 1.205-2.885 0.747-0.739 1.775-1.196 2.91-1.196s2.162 0.457 2.91 1.196l-0-0c0.743 0.736 1.204 1.756 1.205 2.884v0z"></path>
</symbol>

<symbol id="icon-Instagram" viewBox="0 0 32 32">
<path d="M9.28 0h13.44c5.12 0 9.28 4.16 9.28 9.28v13.44c0 5.125-4.155 9.28-9.28 9.28v0h-13.44c-5.12 0-9.28-4.16-9.28-9.28v-13.44c0-5.125 4.155-9.28 9.28-9.28v0zM8.96 3.2c-3.181 0-5.76 2.579-5.76 5.76v0 14.080c0 0.001 0 0.002 0 0.003 0 3.179 2.577 5.757 5.757 5.757 0.001 0 0.002 0 0.004 0h14.080c3.181 0 5.76-2.579 5.76-5.76v0-14.080c0-0.001 0-0.002 0-0.003 0-3.179-2.577-5.757-5.757-5.757-0.001 0-0.002 0-0.004 0h-14.080zM24.4 5.6c1.105 0 2 0.895 2 2s-0.895 2-2 2v0c-1.105 0-2-0.895-2-2s0.895-2 2-2v0zM16 8c4.418 0 8 3.582 8 8s-3.582 8-8 8v0c-4.418 0-8-3.582-8-8s3.582-8 8-8v0zM16 11.2c-2.651 0-4.8 2.149-4.8 4.8s2.149 4.8 4.8 4.8v0c2.651 0 4.8-2.149 4.8-4.8s-2.149-4.8-4.8-4.8v0z"></path>
</symbol>

<symbol id="icon-arrow" viewBox="0 0 32 32">
<path d="M14.735 3.964c0.405-0.405 0.965-0.656 1.584-0.656s1.179 0.251 1.584 0.656l10.453 10.453c0.407 0.405 0.659 0.965 0.659 1.584s-0.252 1.179-0.659 1.584l-10.453 10.453c-0.405 0.405-0.965 0.656-1.584 0.656-1.237 0-2.24-1.003-2.24-2.24 0-0.619 0.251-1.179 0.656-1.584l6.628-6.63h-16.369c-1.237 0-2.24-1.003-2.24-2.24s1.003-2.24 2.24-2.24h16.369l-6.628-6.628c-0.405-0.405-0.656-0.965-0.656-1.584s0.251-1.179 0.656-1.584v0z"></path>
</symbol>

<!-- About page icons -->

<symbol id="icon-cell-phone" viewBox="0 0 32 32">
<path stroke-linejoin="miter" stroke-linecap="butt" stroke-miterlimit="4" stroke-width="1.7778" d="M7.577 0.946c0.128-0.037 0.274-0.058 0.426-0.058 0.632 0 1.179 0.366 1.44 0.898l0.004 0.009 0.039 0.091 2.5 6c0.079 0.183 0.124 0.396 0.124 0.62 0 0.501-0.23 0.948-0.589 1.243l-0.003 0.002-3.62 2.958 0.299 0.628c2.219 4.612 5.855 8.247 10.334 10.41l0.132 0.057 0.628 0.297 0.441-0.537 2.528-3.084c0.296-0.36 0.742-0.589 1.241-0.589 0.224 0 0.437 0.046 0.63 0.129l-0.010-0.004 6 2.5c0.748 0.311 1.148 1.125 0.933 1.908l-1.499 5.499c-0.193 0.69-0.816 1.189-1.555 1.191h-0c-14.972-0.002-27.111-12.14-27.111-27.113 0.002-0.74 0.501-1.362 1.18-1.553l0.011-0.003 5.497-1.499z"></path>
</symbol>

<symbol id="icon-facebook" viewBox="0 0 30 32">
<path stroke-linejoin="miter" stroke-linecap="butt" stroke-miterlimit="4" stroke-width="1.6842" d="M8.253 20.766v0.842h3.032v8.421c-6.076-1.764-10.442-7.28-10.442-13.816 0-0.003 0-0.006 0-0.008v0c0-7.924 6.417-14.353 14.316-14.353s14.316 6.429 14.316 14.355c0 0.005 0 0.010 0 0.016 0 7.079-5.128 12.96-11.872 14.131l-0.086 0.012v-8.758h4.547v-6.245h-4.547v-2.196c0-0.372 0.307-0.677 0.674-0.677h3.874v-6.243h-4.632c-3.397 0.007-6.147 2.762-6.147 6.159 0 0.001 0 0.001 0 0.002v-0 2.957h-3.032v5.4z"></path>
</symbol>

<symbol id="icon-instagram" viewBox="0 0 30 32">
<path d="M8.303 2.189h12.025c4.581 0 8.303 3.503 8.303 7.815v11.318c0 2.072-0.876 4.059-2.432 5.526-1.525 1.418-3.577 2.289-5.831 2.289-0.014 0-0.028-0-0.042-0h-12.023c-4.581 0-8.303-3.503-8.303-7.815v-11.318c0-2.072 0.876-4.059 2.432-5.524 1.525-1.419 3.578-2.291 5.833-2.291 0.013 0 0.027 0 0.040 0h-0.002zM8.017 4.884c-0.007-0-0.015-0-0.024-0-1.4 0-2.674 0.541-3.624 1.425l0.003-0.003c-0.923 0.857-1.501 2.075-1.509 3.428v11.858c0 2.681 2.304 4.851 5.154 4.851h12.598c0.008 0 0.017 0 0.026 0 1.399 0 2.672-0.54 3.622-1.423l-0.003 0.003c0.967-0.909 1.509-2.144 1.509-3.431v-11.857c0-2.681-2.306-4.851-5.154-4.851h-12.598zM21.832 6.905c0.473 0 0.93 0.177 1.263 0.493 0.337 0.315 0.525 0.744 0.525 1.191s-0.189 0.876-0.524 1.191c-0.337 0.317-0.792 0.493-1.267 0.493-0.473 0-0.928-0.177-1.263-0.493-0.321-0.297-0.522-0.72-0.525-1.19v-0.001c0-0.446 0.189-0.876 0.524-1.191 0.337-0.317 0.792-0.493 1.267-0.493zM14.316 8.926c1.898 0 3.719 0.709 5.061 1.974 1.282 1.19 2.086 2.882 2.097 4.761v0.002c0 1.785-0.755 3.5-2.097 4.765-1.315 1.222-3.083 1.972-5.027 1.972-0.012 0-0.024-0-0.036-0h0.002c-0.010 0-0.022 0-0.034 0-1.944 0-3.712-0.75-5.031-1.977l0.005 0.004c-1.283-1.191-2.086-2.883-2.097-4.763v-0.002c0-1.785 0.755-3.5 2.097-4.763 1.315-1.223 3.084-1.974 5.029-1.974 0.011 0 0.023 0 0.034 0h-0.002zM14.316 11.621c-1.139 0-2.232 0.426-3.037 1.184-0.77 0.714-1.252 1.729-1.258 2.857v0.001c0 1.073 0.453 2.1 1.258 2.858s1.898 1.184 3.037 1.184c1.139 0 2.232-0.426 3.037-1.184 0.77-0.714 1.252-1.729 1.258-2.857v-0.001c-0.006-1.129-0.488-2.144-1.256-2.856l-0.003-0.002c-0.789-0.734-1.85-1.184-3.017-1.184-0.007 0-0.014 0-0.021 0h0.001z"></path>
</symbol>

<symbol id="icon-linkedin" viewBox="0 0 30 32">
<path stroke-linejoin="miter" stroke-linecap="butt" stroke-miterlimit="4" stroke-width="1.6842" d="M6.954 5.381c0-0.8-0.32-1.566-0.893-2.136-0.555-0.551-1.32-0.891-2.164-0.891s-1.609 0.34-2.164 0.891l0-0 5.221 2.136zM6.954 5.381c0 0 0 0 0 0 0 0.834-0.341 1.589-0.892 2.132l-0 0M6.954 5.381l-0.893 2.132M6.061 7.513v0.002M6.061 7.513v0.002M6.061 7.515c-0.576 0.573-1.354 0.893-2.164 0.889M6.061 7.515l-2.166 0.889M3.896 8.404c-0.808 0-1.587-0.32-2.163-0.889M3.896 8.404l-2.161-0.889M1.735 7.515c-0.55-0.545-0.89-1.3-0.893-2.135v-0c0-0.8 0.32-1.566 0.893-2.132l-0.002 4.268zM29.475 20.921v10.068h-4.379v-8.724c0-1.716-0.202-3.193-0.758-4.269-0.286-0.552-0.674-1.019-1.192-1.344-0.485-0.3-1.072-0.477-1.701-0.477-0.024 0-0.047 0-0.071 0.001l0.003-0c-1.656 0-2.944 0.606-3.783 1.77-0.803 1.117-1.112 2.634-1.112 4.317v8.728h-4.379v-18.068h3.946v1.962l1.593 0.379c0.643-1.28 2.397-2.599 5.263-2.599 2.848 0 4.382 0.758 5.267 1.991 0.938 1.307 1.302 3.343 1.302 6.269zM6.085 12.665v18.068h-4.379v-18.070h4.379z"></path>
</symbol>

<symbol id="icon-mail" viewBox="0 0 30 32">
<path stroke-linejoin="round" stroke-linecap="round" stroke-miterlimit="4" stroke-width="1.6842" d="M26.040 5.053h-21.765c-1.432 0-2.59 1.226-2.59 2.737v16.421c0 1.512 1.16 2.737 2.59 2.737h21.765c1.432 0 2.592-1.224 2.592-2.737v-16.421c0-1.511-1.16-2.737-2.592-2.737z"></path>
<path stroke-linejoin="round" stroke-linecap="round" stroke-miterlimit="4" stroke-width="1.6842" d="M5.053 9.263l10.105 8.421 10.105-8.421"></path>
</symbol>

<symbol id="icon-location" viewBox="0 0 25 32">
<path stroke-linejoin="miter" stroke-linecap="butt" stroke-miterlimit="4" stroke-width="1.7778" d="M24 12.032c0 1.188-0.418 2.692-1.163 4.396-0.738 1.689-1.764 3.504-2.905 5.294-2.283 3.58-4.983 6.99-6.636 8.99-0.205 0.244-0.51 0.397-0.852 0.397s-0.646-0.154-0.85-0.396l-0.001-0.002c-1.653-2-4.354-5.41-6.636-8.99-1.141-1.79-2.167-3.605-2.905-5.294-0.745-1.708-1.163-3.209-1.163-4.396 0-6.124 5.148-11.143 11.556-11.143s11.556 5.019 11.556 11.143zM15.995 8.556c-0.917-0.881-2.165-1.424-3.54-1.424-0.004 0-0.007 0-0.011 0h0.001c-1.326 0-2.604 0.508-3.55 1.422-0.914 0.879-1.483 2.111-1.486 3.477v0.001c0 1.308 0.537 2.558 1.486 3.474 0.917 0.881 2.165 1.424 3.54 1.424 0.004 0 0.007 0 0.011 0h-0.001c1.326 0 2.604-0.508 3.55-1.422 0.914-0.878 1.483-2.11 1.486-3.475v-0.001c0-1.31-0.537-2.56-1.486-3.476z"></path>
</symbol>

<symbol id="icon-checkmark" viewBox="0 0 32 32">
<path d="M28.998 8.531l-2.134-2.134c-0.394-0.393-1.030-0.393-1.423 0l-12.795 12.795-6.086-6.13c-0.393-0.393-1.029-0.393-1.423 0l-2.134 2.134c-0.393 0.394-0.393 1.030 0 1.423l8.924 8.984c0.393 0.393 1.030 0.393 1.423 0l15.648-15.649c0.393-0.392 0.393-1.030 0-1.423z"></path>
</symbol>
<symbol id="icon-phone-black" viewBox="0 0 24 32">
<path d="M19.635 18.487l-2.451-0.28c-0.067-0.008-0.145-0.013-0.223-0.013-0.531 0-1.012 0.215-1.36 0.564l-1.775 1.775c-2.752-1.42-4.94-3.607-6.322-6.278l-0.038-0.081 1.787-1.785c0.347-0.347 0.562-0.827 0.562-1.358 0-0.079-0.005-0.156-0.014-0.233l0.001 0.009-0.28-2.432c-0.115-0.966-0.93-1.708-1.918-1.708-0.001 0-0.002 0-0.002 0h-1.669c-1.091 0-1.997 0.907-1.929 1.997 0.511 8.24 7.101 14.821 15.332 15.333 1.091 0.067 1.997-0.84 1.997-1.931v-1.669c0-0.003 0-0.007 0-0.011 0-0.981-0.739-1.789-1.69-1.899l-0.009-0.001z"></path>
</symbol>
<symbol id="icon-email-black" viewBox="0 0 24 32">
<path d="M20 8h-16c-1.1 0-1.989 0.9-1.989 2l-0.011 12c0 1.1 0.9 2 2 2h16c1.1 0 2-0.9 2-2v-12c0-1.1-0.9-2-2-2zM19.6 12.251l-7.069 4.419c-0.151 0.094-0.334 0.15-0.531 0.15s-0.38-0.056-0.535-0.153l0.004 0.002-7.069-4.419c-0.252-0.15-0.418-0.422-0.418-0.731 0-0.469 0.38-0.849 0.849-0.849 0.174 0 0.337 0.053 0.471 0.143l6.697 4.187 6.7-4.191c0.132-0.088 0.294-0.141 0.468-0.141 0.469 0 0.849 0.38 0.849 0.849 0 0.31-0.166 0.581-0.414 0.729l-0.004 0.002z"></path>
</symbol>
<symbol id="icon-calendar" viewBox="0 0 32 32">
<path d="M10 12h4v4h-4zM16 12h4v4h-4zM22 12h4v4h-4zM4 24h4v4h-4zM10 24h4v4h-4zM16 24h4v4h-4zM10 18h4v4h-4zM16 18h4v4h-4zM22 18h4v4h-4zM4 18h4v4h-4zM26 0v2h-4v-2h-14v2h-4v-2h-4v32h30v-32h-4zM28 30h-26v-22h26v22z"></path>
</symbol>
</defs>
</svg>
